<?xml version="1.0" encoding="UTF-8"?>
<svg version="1.1" xmlns="http://www.w3.org/2000/svg" width="1024" height="1024">
<path d="M0 0 C1.43393197 0.770114 2.86818088 1.53963814 4.30273438 2.30859375 C12.96575905 6.95921221 21.60013526 11.66282702 30.22192383 16.3894043 C37.81040307 20.54225768 45.43602845 24.62400382 53.07275391 28.68725586 C54.45425268 29.42234335 55.83545099 30.15799589 57.21630859 30.89428711 C64.15203496 34.59100706 71.10505281 38.22718301 78.15625 41.69921875 C82.46540427 43.83655927 86.5571243 46.07470261 90.58496094 48.69482422 C94.92576521 51.38942938 99.48555108 53.70956142 103.99816895 56.10089111 C107.12440188 57.75781771 110.2454578 59.42445312 113.3671875 61.08984375 C113.99334961 61.42359009 114.61951172 61.75733643 115.26464844 62.10119629 C120.84069966 65.07550342 126.39343437 68.0914932 131.9375 71.125 C133.72132855 72.10030728 135.50518275 73.07556763 137.2890625 74.05078125 C138.17239258 74.53369629 139.05572266 75.01661133 139.96582031 75.51416016 C154.14354361 83.25416949 168.36749951 90.90767352 182.6116333 98.52456665 C191.1978168 103.11692835 199.75929635 107.75212478 208.29882812 112.43066406 C213.4686835 115.25834358 218.65280907 118.05785785 223.8515625 120.83203125 C224.46988953 121.16218231 225.08821655 121.49233337 225.72528076 121.83248901 C228.74743876 123.44561414 231.77103025 125.05590143 234.796875 126.66210938 C241.33749141 130.14866766 247.78401833 133.75306831 254.16040039 137.53222656 C255.66314677 138.40504187 257.18261818 139.25137224 258.73217773 140.03808594 C267.56308656 144.53098307 272.64019699 152.85809096 275.6875 162 C276.54510765 172.81148002 275.49189753 181.39950854 268.8125 190.125 C264.31128078 194.84145423 258.77862717 197.72859681 253.07470703 200.73779297 C250.32004367 202.19428812 247.57987513 203.67631982 244.83984375 205.16015625 C240.39505477 207.56431987 235.9456585 209.95961367 231.4921875 212.34765625 C225.13258063 215.75865244 218.78246186 219.18684844 212.4375 222.625 C211.45233398 223.15883301 210.46716797 223.69266602 209.45214844 224.24267578 C197.3994183 230.7780311 185.36589122 237.34861597 173.3359375 243.92578125 C163.38874644 249.36128153 153.42353784 254.76116215 143.4375 260.125 C135.4543249 264.4137223 127.50065331 268.74653121 119.59277344 273.17236328 C112.99610882 276.8532842 106.34348432 280.42771651 99.6875 284 C91.5682141 288.3579833 83.47602103 292.75551203 75.43334961 297.25317383 C69.40173447 300.61979913 63.32920084 303.9077239 57.25 307.1875 C48.48630257 311.91809662 39.76269741 316.71613941 31.0625 321.5625 C16.10693795 329.89151891 1.1104686 338.14225805 -14 346.1875 C-14.70141113 346.56245605 -15.40282227 346.93741211 -16.12548828 347.32373047 C-21.09466673 349.95461848 -24.75612353 351.18525488 -30.375 351.3125 C-31.43847656 351.34988281 -32.50195312 351.38726563 -33.59765625 351.42578125 C-42.19712769 350.44014257 -49.7970138 345.84895975 -57.25 341.6875 C-58.1874707 341.1704248 -59.12494141 340.65334961 -60.09082031 340.12060547 C-63.16854736 338.42055166 -66.24107265 336.71140672 -69.3125 335 C-73.7291158 332.54157527 -78.14577463 330.08322788 -82.5625 327.625 C-83.69461914 326.99440674 -84.82673828 326.36381348 -85.99316406 325.71411133 C-96.98980808 319.59993365 -108.06731204 313.64082554 -119.15576172 307.6953125 C-124.29780153 304.93380249 -129.43073844 302.15555275 -134.5625 299.375 C-135.55016357 298.83987793 -136.53782715 298.30475586 -137.55541992 297.75341797 C-145.05326781 293.68819306 -152.54221267 289.60677301 -160.02661133 285.5168457 C-164.74936311 282.93753242 -169.47740126 280.36865004 -174.21484375 277.81640625 C-185.22050655 271.88451027 -196.15484986 265.85121646 -207.01928711 259.66430664 C-213.65805307 255.89783705 -220.36936122 252.3057973 -227.14355469 248.7902832 C-233.13518801 245.66326743 -239.00977754 242.35715291 -244.875 239 C-254.56374459 233.46595578 -264.38028032 228.20125565 -274.25 223 C-274.97852173 222.61587952 -275.70704346 222.23175903 -276.4576416 221.83599854 C-279.35706047 220.30728279 -282.25657066 218.77874043 -285.15625 217.2505188 C-295.25740762 211.92401034 -305.33041614 206.5471866 -315.3125 201 C-316.37694336 200.40952881 -316.37694336 200.40952881 -317.46289062 199.80712891 C-328.1041988 193.83133944 -335.60326804 187.60545876 -339 175.5625 C-340.14980325 166.13411333 -338.84359682 158.01841349 -333.125 150.25 C-327.13131978 142.6084223 -318.51251968 138.28653585 -310.06115723 133.88189697 C-306.92205648 132.24506655 -303.79534097 130.58488084 -300.66796875 128.92578125 C-300.03790924 128.59205505 -299.40784973 128.25832886 -298.75869751 127.91448975 C-293.13158509 124.924712 -287.58995614 121.79498209 -282.0625 118.625 C-271.52072334 112.59898084 -260.81447679 106.90683984 -250.08056641 101.23364258 C-248.71644022 100.51259145 -247.3523448 99.79148211 -245.98828125 99.0703125 C-245.32376953 98.71899765 -244.65925781 98.3676828 -243.97460938 98.00572205 C-237.39671339 94.52347785 -230.86235357 90.96367479 -224.33569336 87.38647461 C-217.34602743 83.55710303 -210.33286153 79.77277757 -203.3125 76 C-195.33922451 71.71442281 -187.37843992 67.4076945 -179.4375 63.0625 C-171.12814872 58.51744192 -162.78908573 54.02933706 -154.4375 49.5625 C-129.5324819 36.25654335 -129.5324819 36.25654335 -104.875 22.5 C-95.89942239 17.38176539 -86.80329934 12.54419485 -77.61132812 7.82666016 C-72.43049854 5.16244206 -67.28520243 2.45581373 -62.1953125 -0.37890625 C-61.21506104 -0.92409912 -60.23480957 -1.46929199 -59.22485352 -2.03100586 C-57.39245832 -3.05591019 -55.56441403 -4.08865367 -53.74194336 -5.13110352 C-33.34569949 -16.52999279 -19.25508384 -10.43580527 0 0 Z M-56.9375 73.1875 C-57.98599121 73.76137451 -59.03448242 74.33524902 -60.11474609 74.92651367 C-66.77308688 78.57695994 -73.40408389 82.27613459 -80.03076172 85.98364258 C-87.97375258 90.40586635 -96.0086851 94.65630631 -104.03533936 98.92391968 C-113.11545329 103.75204668 -122.17008178 108.62185736 -131.1887207 113.56420898 C-137.0845127 116.79281809 -143.00019037 119.98222416 -148.92553711 123.15625 C-158.34804108 128.20483551 -167.71644869 133.32488698 -177 138.625 C-184.56289644 142.94274765 -192.19623019 147.07356582 -199.9375 151.0625 C-207.77267641 155.1048993 -215.5196231 159.27276622 -223.1875 163.625 C-224.54415771 164.38889038 -224.54415771 164.38889038 -225.92822266 165.16821289 C-227.16644775 165.87772095 -227.16644775 165.87772095 -228.4296875 166.6015625 C-229.15784668 167.01744629 -229.88600586 167.43333008 -230.63623047 167.86181641 C-232.46979953 168.90730653 -232.46979953 168.90730653 -233.3125 171 C-232.55710937 171.36609375 -231.80171875 171.7321875 -231.0234375 172.109375 C-222.68936637 176.20809851 -214.52472349 180.57168178 -206.3828125 185.03881836 C-198.84108827 189.17425612 -191.27170085 193.25551601 -183.6875 197.3125 C-183.10063416 197.62646729 -182.51376831 197.94043457 -181.90911865 198.26391602 C-178.90939995 199.8686524 -175.90937856 201.47282168 -172.90917969 203.07666016 C-165.87912516 206.83526784 -158.8536466 210.60242565 -151.82714844 214.36767578 C-146.52196522 217.21021521 -141.21639004 220.05199918 -135.9085083 222.88949585 C-123.80329519 229.36080662 -111.7104745 235.85226968 -99.67163086 242.4465332 C-91.72100457 246.79474671 -83.72499371 251.05679045 -75.728302 255.31939697 C-65.75371354 260.64112974 -55.87310533 266.11412853 -46.04174805 271.69677734 C-45.06761963 272.2480127 -44.09349121 272.79924805 -43.08984375 273.3671875 C-42.23640381 273.85300293 -41.38296387 274.33881836 -40.50366211 274.83935547 C-36.31319241 277.05902042 -33.01175731 277.32408671 -28.3125 277 C-25.87228469 276.06123139 -23.77658911 275.1094671 -21.5 273.875 C-20.8296875 273.52590576 -20.159375 273.17681152 -19.46875 272.81713867 C-17.07396326 271.56173 -14.69320002 270.28191539 -12.3125 269 C-10.31904694 267.93612948 -8.32555504 266.87233174 -6.33203125 265.80859375 C0.35398992 262.22935765 7.02162178 258.61657262 13.6875 255 C15.7186606 253.89957456 17.74990758 252.79930853 19.78125 251.69921875 C22.73517055 250.09936097 25.68893579 248.49922148 28.64208984 246.89794922 C36.02418937 242.8961316 43.4170204 238.91452528 50.8125 234.9375 C64.7534624 227.43612541 78.66842764 219.88889858 92.51953125 212.22265625 C104.6421393 205.51416966 116.78043241 198.8431075 129 192.3125 C130.14283447 191.70140381 131.28566895 191.09030762 132.46313477 190.46069336 C137.03854982 188.01540957 141.61469333 185.57151609 146.19335938 183.13232422 C149.54829263 181.34324625 152.89947988 179.54732579 156.25 177.75 C157.76750854 176.94429565 157.76750854 176.94429565 159.31567383 176.12231445 C160.24404053 175.62304443 161.17240723 175.12377441 162.12890625 174.609375 C162.94045166 174.17592773 163.75199707 173.74248047 164.58813477 173.29589844 C166.61187985 172.04667889 168.09379565 170.75349106 169.6875 169 C169.02443848 168.65855957 168.36137695 168.31711914 167.67822266 167.96533203 C156.25388115 162.07456344 144.8466888 156.17399281 133.64013672 149.87695312 C127.11364541 146.2159287 120.53040938 142.66481068 113.9375 139.125 C104.89955269 134.2711542 95.8781098 129.38916097 86.87597656 124.46923828 C79.14109819 120.24321002 71.39142932 116.04485364 63.63916016 111.85083008 C57.06313814 108.2915118 50.49785312 104.71309679 43.9375 101.125 C34.52903618 95.98055869 25.07463948 90.92443736 15.61401367 85.87670898 C9.26215287 82.48150852 2.93382834 79.0473421 -3.3671875 75.55859375 C-4.3609565 75.00847122 -4.3609565 75.00847122 -5.37480164 74.44723511 C-8.58094731 72.67078021 -11.78435505 70.88956661 -14.98461914 69.10253906 C-16.13309326 68.46413086 -17.28156738 67.82572266 -18.46484375 67.16796875 C-19.47538818 66.60360107 -20.48593262 66.0392334 -21.52709961 65.45776367 C-34.47025713 58.68384891 -45.23399132 66.70908282 -56.9375 73.1875 Z " fill="#336CE8" transform="translate(541.3125,197)"/>
<path d="M0 0 C1.06605469 0.05542969 2.13210937 0.11085938 3.23046875 0.16796875 C12.45698934 1.82813876 20.77728929 7.34712235 28.9375 11.75 C29.54854584 12.07819733 30.15959167 12.40639465 30.78915405 12.74453735 C40.08020841 17.73493952 49.27705425 22.87528052 58.43579102 28.10498047 C65.95217028 32.3762615 73.58129089 36.39826381 81.26123047 40.36621094 C90.58838683 45.19076622 99.79508911 50.22380285 109.00146484 55.27392578 C113.84731524 57.92622292 118.70469486 60.55718011 123.5625 63.1875 C124.55862305 63.72713379 125.55474609 64.26676758 126.58105469 64.82275391 C131.74587862 67.61864306 136.91485756 70.40655687 142.08984375 73.18359375 C160.70344575 83.17384847 179.21657887 93.33938207 197.6640625 103.6328125 C210.2640439 110.66102547 222.89774818 117.61129656 235.64648438 124.36572266 C241.1767672 127.30007887 246.66444755 130.27678619 252.078125 133.421875 C253.55091919 134.26552612 253.55091919 134.26552612 255.0534668 135.1262207 C256.86319579 136.16771136 258.66270583 137.22728651 260.44848633 138.30932617 C266.60815089 141.82625455 271.75295631 142.82295298 278.8125 141.8125 C282.48472607 140.69027747 282.48472607 140.69027747 285.8125 138.75 C286.4636377 138.40275879 287.11477539 138.05551758 287.78564453 137.69775391 C290.14307806 136.42869462 292.47723907 135.12190461 294.8125 133.8125 C296.85117957 132.68550493 298.89027064 131.55925406 300.9296875 130.43359375 C304.35148255 128.53972262 307.77124003 126.64242445 311.18432617 124.73291016 C319.12582625 120.29012443 327.10583422 115.92665187 335.125 111.625 C349.03172008 104.16189628 362.90264618 96.63684563 376.71484375 89 C377.31252563 88.66955688 377.91020752 88.33911377 378.52600098 87.99865723 C379.13020874 87.66458862 379.7344165 87.33052002 380.35693359 86.98632812 C380.96704285 86.64899658 381.5771521 86.31166504 382.20574951 85.96411133 C383.44231026 85.28040758 384.6788419 84.59665117 385.91534424 83.9128418 C395.8330982 78.43038713 405.79403297 73.03401022 415.78076172 67.67797852 C422.48207753 64.0800776 429.14405889 60.42087544 435.77929688 56.70288086 C442.63703138 52.87665388 449.56972599 49.19244276 456.5 45.5 C465.16839556 40.8809376 473.78157789 36.18247011 482.3125 31.3125 C492.05210754 25.75549321 501.88991159 20.39523325 511.79907227 15.14794922 C516.87425926 12.45977713 521.93612686 9.77035332 526.91015625 6.8984375 C537.10278153 1.0652016 545.69241265 -1.76370088 557.5 0.8125 C565.98197691 3.53663857 573.66544949 8.78812583 577.8125 16.8125 C581.56628569 24.56422004 582.13415079 33.22695204 580.15625 41.5859375 C575.95970319 53.34350399 567.33295301 58.94279533 556.8125 64.8125 C556.06742188 65.22902832 555.32234375 65.64555664 554.5546875 66.07470703 C549.48275323 68.89875838 544.38930963 71.68239648 539.29101562 74.45849609 C535.64118834 76.45238322 532.00771404 78.47515311 528.375 80.5 C517.45192865 86.57905528 506.50213116 92.60970896 495.55484009 98.64498901 C491.14946708 101.07410158 486.74617194 103.50695018 482.34375 105.94140625 C479.89598928 107.29455315 477.44806285 108.64739977 475 110 C474.39680939 110.33329315 473.79361877 110.6665863 473.17214966 111.00997925 C464.95084533 115.55072379 456.70503794 120.04387755 448.4375 124.5 C439.71802469 129.20065219 431.0802933 134.03042293 422.47094727 138.92944336 C414.47676032 143.46653652 406.40542255 147.85149624 398.31396484 152.2121582 C391.37634862 155.95432502 384.48776279 159.77209579 377.62890625 163.65625 C373.55761816 165.96166552 369.46721647 168.23199725 365.375 170.5 C359.27761594 173.88065556 353.19096176 177.27985357 347.11108398 180.69189453 C309.93980594 201.54841482 309.93980594 201.54841482 291.6875 211.25 C291.01332031 211.60940674 290.33914063 211.96881348 289.64453125 212.33911133 C284.50548235 215.04706823 280.68880177 216.03150532 274.875 216.1875 C273.64910156 216.23648438 272.42320312 216.28546875 271.16015625 216.3359375 C261.4580937 215.77437349 252.24905576 209.59480326 244.0625 204.8125 C242.04796976 203.65434365 240.03230801 202.49815368 238.015625 201.34375 C236.47938477 200.46396484 236.47938477 200.46396484 234.91210938 199.56640625 C229.91878957 196.74094866 224.86677743 194.02693338 219.8125 191.3125 C212.03396307 187.12560104 204.30488512 182.86524616 196.625 178.5 C188.01255081 173.60524566 179.36452477 168.77901697 170.6875 164 C170.07919342 163.66495453 169.47088684 163.32990906 168.84414673 162.98471069 C165.74121692 161.27603989 162.63780032 159.56825544 159.53417969 157.86083984 C154.05926654 154.84836638 148.58856217 151.82826694 143.11758423 148.80865479 C141.31184001 147.81213578 139.50592504 146.81592696 137.69995117 145.81982422 C132.21427375 142.79404803 126.72922006 139.76716203 121.24676514 136.73554993 C118.16485975 135.03140036 115.08252814 133.32802283 112 131.625 C111.39581238 131.29116302 110.79162476 130.95732605 110.16912842 130.6133728 C101.94883298 126.07317509 93.70405005 121.58053725 85.4375 117.125 C76.75848709 112.44666568 68.16389829 107.63577002 59.59619141 102.75708008 C51.31184149 98.05669471 42.93086478 93.54798077 34.53076172 89.05859375 C26.17794512 84.58177384 17.92776274 79.94210677 9.70068359 75.23901367 C3.29842411 71.59767895 -3.17433466 68.22204691 -9.8359375 65.08203125 C-12.1875 63.8125 -12.1875 63.8125 -13.1875 61.8125 C-13.868125 61.565 -14.54875 61.3175 -15.25 61.0625 C-21.99839569 58.19084226 -27.85965507 53.41776798 -31.1875 46.8125 C-34.91987385 36.75917044 -35.42096325 27.80729295 -31.1875 17.8125 C-26.17885392 9.25226851 -19.59976103 3.74418786 -10.1875 0.8125 C-9.57648438 0.61914062 -8.96546875 0.42578125 -8.3359375 0.2265625 C-5.48296763 -0.3232826 -2.89862417 -0.1835449 0 0 Z " fill="#204DA8" transform="translate(236.1875,590.1875)"/>
<path d="M0 0 C9.44745001 5.22750177 18.95666267 10.3257496 28.5 15.375 C38.69391519 20.77269236 48.85531268 26.22201343 58.96875 31.76953125 C64.61645739 34.86252683 70.29410174 37.89083302 76 40.875 C84.64254776 45.396358 93.2059277 50.05523685 101.76171875 54.73828125 C107.66460912 57.96881452 113.58133171 61.17348863 119.5 64.375 C128.08079929 69.01813442 136.65165245 73.67901199 145.21313477 78.35766602 C149.9362384 80.93709344 154.66458115 83.50617751 159.40234375 86.05859375 C169.42970616 91.46319971 179.41320669 96.92616356 189.3125 102.5625 C197.00937518 106.94470057 204.76289951 111.17736506 212.62109375 115.26269531 C218.99289029 118.58202009 225.27804984 122.04392315 231.5402832 125.56518555 C232.91147789 126.33470274 234.28673058 127.09704692 235.66650391 127.85107422 C237.24946617 128.73508803 238.79163456 129.69142738 240.32421875 130.66015625 C245.98393939 132.82519084 251.51247318 132.93466245 257.25048828 130.89941406 C260.09633179 129.54259755 262.8244184 128.06266279 265.5625 126.5 C266.55983154 125.9548877 267.55716309 125.40977539 268.5847168 124.84814453 C271.56866022 123.21135013 274.53475238 121.54536194 277.5 119.875 C279.11859352 118.98219938 280.73829655 118.09140569 282.359375 117.203125 C286.75479215 114.78723966 291.12874962 112.33426767 295.5 109.875 C307.2243267 103.29131832 319.03888323 96.88688144 330.8984375 90.55078125 C340.92279922 85.19382672 350.90774816 79.76705101 360.87744141 74.30908203 C363.49337871 72.87862069 366.11151304 71.45227044 368.73046875 70.02734375 C376.59187419 65.74885535 384.44812509 61.46219981 392.27734375 57.125 C406.03898994 49.50151945 419.84906822 41.98490628 433.7421875 34.60351562 C441.18286943 30.64953591 448.60629899 26.66636466 456 22.625 C457.31895264 21.90413208 457.31895264 21.90413208 458.66455078 21.16870117 C462.16710613 19.25215338 465.66795392 17.33254155 469.16650391 15.40869141 C480.06518652 9.41569863 490.99980685 3.49237874 502 -2.3125 C503.05678955 -2.87767334 504.1135791 -3.44284668 505.20239258 -4.02514648 C506.19779053 -4.54665283 507.19318848 -5.06815918 508.21875 -5.60546875 C509.09466797 -6.06848389 509.97058594 -6.53149902 510.87304688 -7.00854492 C518.93721003 -10.43581426 527.89497042 -9.83620896 536.0703125 -7.1875 C539.3963651 -5.73302041 542.03861288 -3.75438961 544.80859375 -1.4296875 C546.57956691 0.08432032 546.57956691 0.08432032 549.5 0.875 C555.02028574 9.71691378 558.17465488 18.34477011 556.5 28.875 C554.60854758 36.92151031 551.37761098 43.6401626 544.36303711 48.29223633 C538.21106244 51.9215444 531.98441904 55.37913274 525.6875 58.75 C516.46738137 63.71328729 507.28547891 68.7404335 498.125 73.8125 C487.75653312 79.55230661 477.34225861 85.19893542 466.89379883 90.79223633 C459.80919277 94.59750508 452.79620091 98.51297198 445.8125 102.5 C437.18927111 107.4221316 428.45589489 112.08150426 419.63427734 116.63720703 C413.53904106 119.79099756 407.52272118 123.04734309 401.56030273 126.44458008 C395.9526082 129.63682826 390.294267 132.73109122 384.625 135.8125 C377.94010236 139.44722381 371.26872833 143.10305351 364.625 146.8125 C357.68025185 150.68986024 350.68995487 154.47799318 343.6875 158.25 C334.91097644 162.97850752 326.2362557 167.8585938 317.6015625 172.84057617 C312.29377908 175.88958697 306.93441779 178.72983691 301.42578125 181.40234375 C297.84582766 183.20426966 294.36225187 185.15097238 290.875 187.125 C290.20791016 187.50188965 289.54082031 187.8787793 288.85351562 188.26708984 C285.96664195 189.90138871 283.08272555 191.54054356 280.20556641 193.19189453 C254.75972978 207.78466013 254.75972978 207.78466013 244.37011719 205.38256836 C237.47645595 203.45316154 231.54070449 200.48987988 225.3125 197 C224.27077637 196.42628662 223.22905273 195.85257324 222.15576172 195.26147461 C214.16483089 190.84663898 206.22557923 186.33925071 198.29052734 181.82495117 C187.83684704 175.89444666 177.2373993 170.23972135 166.64404297 164.56396484 C154.52605795 158.05424126 142.47172376 151.42885676 130.45800781 144.72900391 C122.20343334 140.13605535 113.8881436 135.65562689 105.578125 131.1640625 C99.87751405 128.08211315 94.18716818 124.98166957 88.5 121.875 C80.84177816 117.69264497 73.17426838 113.52783605 65.5 109.375 C53.24777415 102.74420971 41.01779277 96.07307356 28.79101562 89.39550781 C18.41082127 83.72712954 8.02470922 78.0700075 -2.375 72.4375 C-3.85504517 71.63505859 -3.85504517 71.63505859 -5.36499023 70.81640625 C-10.58156326 67.98972102 -15.80394793 65.17451687 -21.03515625 62.375 C-22.10717285 61.79935303 -23.17918945 61.22370605 -24.28369141 60.63061523 C-26.31914493 59.53788647 -28.3564522 58.44860044 -30.39599609 57.36352539 C-42.65578518 50.77067674 -53.40837241 44.59154386 -57.83984375 30.6640625 C-59.86255156 22.1184212 -58.47034909 14.67556821 -54.5 6.875 C-49.16946311 -0.88330617 -42.06152692 -6.36459034 -32.9375 -8.8125 C-20.33584838 -9.95810469 -10.73678496 -6.02130508 0 0 Z " fill="#285BC9" transform="translate(260.5,471.125)"/>
<path d="M0 0 C6.70640744 3.23485535 13.26245568 6.66372945 19.75 10.3125 C29.83518938 15.98135784 40.06692574 21.37052309 50.30371094 26.7590332 C57.94873941 30.79257165 65.49726004 34.94856917 72.96630859 39.30029297 C76.8807075 41.49344001 80.85643726 43.28542231 85 45 C85 45.66 85 46.32 85 47 C85.81082031 47.23589844 86.62164062 47.47179687 87.45703125 47.71484375 C91.77736793 49.281978 95.66136849 51.36358607 99.6875 53.5625 C101.19028509 54.37837058 102.69414905 55.1922579 104.19921875 56.00390625 C105.18668091 56.54253296 105.18668091 56.54253296 106.1940918 57.09204102 C108.1512842 58.13021329 108.1512842 58.13021329 111 59 C111 59.66 111 60.32 111 61 C113.97 61.99 116.94 62.98 120 64 C120 64.66 120 65.32 120 66 C122.31 66.33 124.62 66.66 127 67 C127 67.99 127 68.98 127 70 C129.97 70.495 129.97 70.495 133 71 C133 71.66 133 72.32 133 73 C133.886875 73.28875 134.77375 73.5775 135.6875 73.875 C138.50382424 74.83148748 141.25083156 75.86798946 144 77 C144 77.66 144 78.32 144 79 C144.77085937 79.21140625 145.54171875 79.4228125 146.3359375 79.640625 C151.38722407 81.51466309 155.92893719 84.12613904 160.625 86.75 C162.59428993 87.83601858 164.56433646 88.92066641 166.53515625 90.00390625 C167.94885498 90.78145264 167.94885498 90.78145264 169.39111328 91.57470703 C182.87999417 99.01716835 182.87999417 99.01716835 198 100 C200.49204772 99.11247445 202.79504522 98.07235798 205.15234375 96.875 C207 96 207 96 209 96 C208 99 208 99 206.390625 100.16796875 C199.23379379 103.57660551 191.3881311 104.74046237 183.7121582 102.26098633 C177.55409931 99.89694088 171.8136937 96.89874452 166.0625 93.6875 C165.1250293 93.1704248 164.18755859 92.65334961 163.22167969 92.12060547 C160.14395264 90.42055166 157.07142735 88.71140672 154 87 C149.5833842 84.54157527 145.16672537 82.08322788 140.75 79.625 C139.61788086 78.99440674 138.48576172 78.36381348 137.31933594 77.71411133 C126.32269192 71.59993365 115.24518796 65.64082554 104.15673828 59.6953125 C99.01469847 56.93380249 93.88176156 54.15555275 88.75 51.375 C87.76233643 50.83987793 86.77467285 50.30475586 85.75708008 49.75341797 C78.25923219 45.68819306 70.77028733 41.60677301 63.28588867 37.5168457 C58.56313689 34.93753242 53.83509874 32.36865004 49.09765625 29.81640625 C37.88031617 23.77035452 26.72128099 17.64153447 15.66040039 11.31274414 C10.5103708 8.37500844 5.33057907 5.5967891 0 3 C0 2.01 0 1.02 0 0 Z " fill="#295ACF" transform="translate(318,445)"/>
<path d="M0 0 C5.46295835 1.54083441 9.06058205 2.78889806 13 7 C16.13350717 8.26784124 16.13350717 8.26784124 19 9 C19 9.66 19 10.32 19 11 C21.97 11.99 24.94 12.98 28 14 C28 14.66 28 15.32 28 16 C28.83144531 16.24234375 29.66289062 16.4846875 30.51953125 16.734375 C34.52862475 18.19222718 38.0093039 20.11353095 41.6875 22.25 C43.10771087 23.06313267 44.52828521 23.87563084 45.94921875 24.6875 C46.63935059 25.08324219 47.32948242 25.47898437 48.04052734 25.88671875 C50.67204393 27.38182411 53.33370294 28.81803067 56 30.25 C59.15181244 31.9507538 62.18768913 33.73211071 65.1875 35.6875 C68.95529812 38.10575552 72.76603769 39.56347707 77 41 C77 41.66 77 42.32 77 43 C87.56512709 46.77647096 96.16138511 46.58281887 107 44 C107 43.34 107 42.68 107 42 C108.98 41.67 110.96 41.34 113 41 C113 40.34 113 39.68 113 39 C114.95585325 37.99515796 116.91476237 36.99626195 118.875 36 C119.96554687 35.443125 121.05609375 34.88625 122.1796875 34.3125 C125 33 125 33 127 33 C127.33 32.01 127.66 31.02 128 30 C128.73516846 29.88285645 129.47033691 29.76571289 130.2277832 29.64501953 C133.00671557 28.99843747 134.90784236 28.11732679 137.35546875 26.6796875 C138.14244141 26.22722656 138.92941406 25.77476562 139.74023438 25.30859375 C141.38387703 24.34575759 143.02710043 23.38220541 144.66992188 22.41796875 C145.45302734 21.96808594 146.23613281 21.51820313 147.04296875 21.0546875 C147.75477295 20.63687012 148.46657715 20.21905273 149.19995117 19.78857422 C149.79396729 19.52834473 150.3879834 19.26811523 151 19 C151.66 19.33 152.32 19.66 153 20 C149.75133592 22.71298981 146.55937023 24.93258707 142.82421875 26.91796875 C141.83897217 27.44592041 140.85372559 27.97387207 139.83862305 28.51782227 C138.79875244 29.06881592 137.75888184 29.61980957 136.6875 30.1875 C130.13056312 33.68956201 123.5897063 37.19682393 117.15722656 40.92333984 C98.18900729 51.893309 98.18900729 51.893309 87.87011719 49.50756836 C80.97645595 47.57816154 75.04070449 44.61487988 68.8125 41.125 C67.77077637 40.55128662 66.72905273 39.97757324 65.65576172 39.38647461 C57.67575357 34.97767355 49.74627416 30.47816746 41.82348633 25.9675293 C33.18497113 21.06414776 24.44961653 16.35042012 15.68994141 11.66821289 C10.41643488 8.84867767 5.1708372 6.00408013 0 3 C0 2.01 0 1.02 0 0 Z " fill="#224AA4" transform="translate(417,627)"/>
<path d="M0 0 C0.62003906 0.3403125 1.24007813 0.680625 1.87890625 1.03125 C4.91603621 2.69349289 7.95772473 4.34719214 11 6 C11.63647461 6.34756348 12.27294922 6.69512695 12.92871094 7.05322266 C14.92917764 8.14425318 16.93299737 9.22890548 18.9375 10.3125 C19.5756665 10.66183594 20.21383301 11.01117187 20.87133789 11.37109375 C24.43027989 13.28693012 24.43027989 13.28693012 28.25390625 14.54296875 C30 15 30 15 31.26611328 16.33642578 C33.46761503 18.44865232 35.79035315 19.64941066 38.48828125 21.07421875 C39.58027832 21.6554248 40.67227539 22.23663086 41.79736328 22.83544922 C42.9573584 23.44662598 44.11735352 24.05780273 45.3125 24.6875 C47.69295339 25.95153008 50.07125989 27.21956572 52.44921875 28.48828125 C53.5892334 29.09623535 54.72924805 29.70418945 55.90380859 30.33056641 C60.57639013 32.84997285 65.1532854 35.51634594 69.73828125 38.19140625 C74.37201713 40.76077117 79.13342814 43.06743628 83.93798828 45.30029297 C85.66237624 46.12698358 87.33669639 47.05641519 89 48 C89.33 48.99 89.66 49.98 90 51 C86.16686496 50.40569887 83.28608853 49.27609734 79.89453125 47.41015625 C78.43406372 46.61279053 78.43406372 46.61279053 76.9440918 45.79931641 C75.9106665 45.22616699 74.87724121 44.65301758 73.8125 44.0625 C72.73460205 43.47130371 71.6567041 42.88010742 70.54614258 42.27099609 C67.36014316 40.52105002 64.17934406 38.76200259 61 37 C59.45574149 36.14711311 57.91147212 35.29424588 56.3671875 34.44140625 C52.7696019 32.45019026 49.17856692 30.4473864 45.58837891 28.44287109 C41.96231778 26.42155235 38.33196288 24.40799148 34.70196533 22.39375305 C23.11496353 15.96399428 11.5369099 9.51932581 0 3 C0 2.01 0 1.02 0 0 Z " fill="#1F408C" transform="translate(347,718)"/>
<path d="M0 0 C2.9131438 1.4565719 3.31007933 3.76630738 4.51171875 6.69921875 C9.4393959 14.31707136 18.19956491 18.14415455 25.9375 22.3125 C27.20579507 23.00382604 28.47377359 23.69573308 29.74145508 24.38818359 C40.84500514 30.43727358 52.01751006 36.36187068 63.21264648 42.23950195 C70.27171818 45.95433864 77.22113583 49.78790951 84 54 C81.48275425 54.94329568 80.36506287 55.14704435 77.83129883 54.12646484 C77.04779053 53.65934082 76.26428223 53.1922168 75.45703125 52.7109375 C74.56089111 52.18806152 73.66475098 51.66518555 72.74145508 51.12646484 C71.7748999 50.54848145 70.80834473 49.97049805 69.8125 49.375 C61.41667859 44.48517739 52.95643545 39.81189407 44.3125 35.375 C5.45106545 15.29463265 5.45106545 15.29463265 0 5 C-0.1875 2.1875 -0.1875 2.1875 0 0 Z " fill="#2C5FD7" transform="translate(205,375)"/>
<path d="M0 0 C-1.28074287 3.84222862 -2.47918056 4.10942177 -5.984375 6.01171875 C-7.05131592 6.59719482 -8.11825684 7.1826709 -9.2175293 7.78588867 C-10.39493438 8.41991727 -11.57242692 9.05378347 -12.75 9.6875 C-13.95728791 10.34584352 -15.16406754 11.00511991 -16.37036133 11.6652832 C-18.92059643 13.05968928 -21.47338401 14.44926551 -24.02783203 15.8359375 C-28.01828448 18.00550388 -31.99308749 20.20268525 -35.96484375 22.40625 C-37.2691989 23.12932546 -38.57356081 23.85238874 -39.87792969 24.57543945 C-41.76574377 25.62204161 -43.65354514 26.66866607 -45.5411377 27.71566772 C-48.38556036 29.29194636 -51.23413056 30.85953287 -54.09130859 32.41259766 C-55.83546333 33.36446051 -57.57097435 34.33283478 -59.28759766 35.33349609 C-64.2685409 38.11786668 -68.34446063 38.50484233 -74 38.25 C-74.77472656 38.23195313 -75.54945313 38.21390625 -76.34765625 38.1953125 C-78.23232089 38.14877757 -80.11633649 38.07705896 -82 38 C-82 37.67 -82 37.34 -82 37 C-81.175 37.020625 -80.35 37.04125 -79.5 37.0625 C-69.94096678 36.89180298 -63.56482684 34.36395426 -55.30078125 29.8125 C-52 28 -52 28 -49 27 C-49 26.34 -49 25.68 -49 25 C-47.02 24.67 -45.04 24.34 -43 24 C-43 23.34 -43 22.68 -43 22 C-42.01 22 -41.02 22 -40 22 C-40 21.34 -40 20.68 -40 20 C-37.02588876 18.76078698 -34.14737182 17.69941596 -31 17 C-31 16.34 -31 15.68 -31 15 C-30.071875 14.731875 -29.14375 14.46375 -28.1875 14.1875 C-25.06956397 13.27744385 -25.06956397 13.27744385 -23.5 11.5 C-21.35395887 9.35395887 -18.84730903 8.92847034 -16 8 C-15.67 7.34 -15.34 6.68 -15 6 C-12.8203125 5 -12.8203125 5 -10.125 4 C-6.84779021 2.77701792 -3.3409793 0 0 0 Z " fill="#193B83" transform="translate(586,767)"/>
<path d="M0 0 C3.74284623 1.43047158 7.27366653 3.10120784 10.83203125 4.94140625 C11.95287109 5.52083984 13.07371094 6.10027344 14.22851562 6.69726562 C15.42331498 7.31874538 16.61797382 7.94049534 17.8125 8.5625 C18.41715088 8.87646729 19.02180176 9.19043457 19.64477539 9.51391602 C29.20981447 14.48347563 38.64682251 19.64278097 48 25 C50.07924913 26.17393013 52.16220846 27.34133035 54.25 28.5 C55.08015625 28.9640625 55.9103125 29.428125 56.765625 29.90625 C58.85435876 30.92870708 60.72805384 31.54144206 63 32 C63 32.66 63 33.32 63 34 C64.65 34.33 66.3 34.66 68 35 C68 35.66 68 36.32 68 37 C68.86625 37.2475 69.7325 37.495 70.625 37.75 C74.18302254 39.06778613 76.9226155 40.80186822 80 43 C77.51683671 43.92062857 76.37985849 44.15075415 73.87890625 43.15820312 C73.11449219 42.70380859 72.35007812 42.24941406 71.5625 41.78125 C70.68198975 41.26876709 69.80147949 40.75628418 68.89428711 40.22827148 C67.93917236 39.65794189 66.98405762 39.0876123 66 38.5 C63.91969275 37.28999987 61.83757991 36.08310003 59.75390625 34.87890625 C58.10479248 33.92395264 58.10479248 33.92395264 56.42236328 32.94970703 C50.65566616 29.66444214 44.79707241 26.55264177 38.9375 23.4375 C37.75580779 22.80721538 36.57424821 22.17668201 35.39282227 21.54589844 C33.06419131 20.30279834 30.73533706 19.06011643 28.40625 17.81787109 C23.07691805 14.9736763 17.75250797 12.12087698 12.4375 9.25 C11.52154053 8.76072021 10.60558105 8.27144043 9.66186523 7.76733398 C8.82341064 7.31302002 7.98495605 6.85870605 7.12109375 6.390625 C6.3933374 5.99907227 5.66558105 5.60751953 4.91577148 5.20410156 C2.97164698 3.98217955 1.51376146 2.72168429 0 1 C0 0.67 0 0.34 0 0 Z " fill="#254FB3" transform="translate(335,583)"/>
<path d="M0 0 C1.01320313 0.52400391 1.01320313 0.52400391 2.046875 1.05859375 C2.93890625 1.51363281 3.8309375 1.96867188 4.75 2.4375 C5.63171875 2.88996094 6.5134375 3.34242188 7.421875 3.80859375 C9.64843265 4.83753327 11.63401778 5.4308996 14 6 C15 7 16 8 17 9 C20.45363273 11.26592001 23.86743504 13.33878961 28 14 C28 14.66 28 15.32 28 16 C28.928125 16.103125 29.85625 16.20625 30.8125 16.3125 C34 17 34 17 35.4140625 18.44140625 C37.35305821 20.346971 38.97323693 20.84864765 41.5625 21.625 C45.89873418 22.94936709 45.89873418 22.94936709 48 24 C48 24.66 48 25.32 48 26 C48.66 26 49.32 26 50 26 C50 26.66 50 27.32 50 28 C50.78375 28.28875 51.5675 28.5775 52.375 28.875 C55 30 55 30 57 32 C52.99490724 32.27060839 50.76732225 31.64011279 47.32421875 29.61328125 C46.42493652 29.0929834 45.5256543 28.57268555 44.59912109 28.03662109 C43.63828613 27.46766113 42.67745117 26.89870117 41.6875 26.3125 C39.63270837 25.1216285 37.57667602 23.93289573 35.51953125 22.74609375 C34.45428223 22.12976074 33.3890332 21.51342773 32.29150391 20.87841797 C25.86190285 17.20912925 19.32908035 13.72972982 12.80737305 10.2277832 C11.85773682 9.71691162 10.90810059 9.20604004 9.9296875 8.6796875 C9.09679199 8.23351074 8.26389648 7.78733398 7.40576172 7.32763672 C6.21490967 6.67045654 6.21490967 6.67045654 5 6 C4.0733252 5.51160645 3.14665039 5.02321289 2.19189453 4.52001953 C1.46856934 4.01841309 0.74524414 3.51680664 0 3 C0 2.01 0 1.02 0 0 Z " fill="#1E4088" transform="translate(439,769)"/>
<path d="M0 0 C6.73674384 1.85536552 12.48244911 5.5316084 18.48046875 9.01171875 C26.2152636 13.38968306 33.9664383 16.31230795 43 15 C45.48677877 14.10631388 47.79735484 13.07118485 50.15234375 11.875 C52 11 52 11 54 11 C53 14 53 14 51.390625 15.16796875 C44.24341235 18.57202441 36.40236082 19.74102588 28.73413086 17.26977539 C22.3699227 14.8272955 16.39871824 11.72660105 10.4375 8.4375 C9.08688477 7.71530273 9.08688477 7.71530273 7.70898438 6.97851562 C6.85498047 6.50994141 6.00097656 6.04136719 5.12109375 5.55859375 C4.3520874 5.13892334 3.58308105 4.71925293 2.79077148 4.28686523 C1 3 1 3 0 0 Z " fill="#2554C1" transform="translate(473,530)"/>
<path d="M0 0 C-1.28419266 3.85257799 -2.47355998 4.08041628 -6.01171875 5.93359375 C-7.0699585 6.4948999 -8.12819824 7.05620605 -9.21850586 7.63452148 C-10.36327393 8.22950439 -11.50804199 8.8244873 -12.6875 9.4375 C-14.45720641 10.37001566 -16.22690465 11.30254804 -17.9957428 12.23670959 C-19.20244468 12.87370924 -20.40975758 13.50955265 -21.61766052 14.14427185 C-25.61548146 16.24950609 -29.57403198 18.41557601 -33.515625 20.625 C-34.51634033 21.18388916 -35.51705566 21.74277832 -36.5480957 22.31860352 C-38.44649044 23.38224994 -40.34100704 24.45285353 -42.23120117 25.53100586 C-43.5070105 26.24075562 -43.5070105 26.24075562 -44.80859375 26.96484375 C-45.91932251 27.59314087 -45.91932251 27.59314087 -47.05249023 28.23413086 C-49 29 -49 29 -52 28 C-49.54481265 26.49462965 -47.0861548 24.99555574 -44.625 23.5 C-43.92632813 23.07074219 -43.22765625 22.64148438 -42.5078125 22.19921875 C-37.2265625 19 -37.2265625 19 -35 19 C-35 18.34 -35 17.68 -35 17 C-34.41734375 16.79246094 -33.8346875 16.58492188 -33.234375 16.37109375 C-27.11509723 14.07155383 -21.64560079 11.17218715 -16.04296875 7.81640625 C-13.01520256 6.0090747 -9.96076276 4.26874529 -6.875 2.5625 C-5.98554687 2.06878906 -5.09609375 1.57507813 -4.1796875 1.06640625 C-2 0 -2 0 0 0 Z " fill="#295DD6" transform="translate(646,476)"/>
<path d="M0 0 C5.46295835 1.54083441 9.06058205 2.78889806 13 7 C16.13350717 8.26784124 16.13350717 8.26784124 19 9 C19 9.66 19 10.32 19 11 C21.97 11.99 24.94 12.98 28 14 C28 14.66 28 15.32 28 16 C28.886875 16.268125 29.77375 16.53625 30.6875 16.8125 C33.80707281 17.93083742 36.3080828 19.077202 39 21 C39.495 22.485 39.495 22.485 40 24 C35.1745582 22.230349 30.7188429 19.83969063 26.1875 17.4375 C25.35887451 17.00002441 24.53024902 16.56254883 23.67651367 16.11181641 C15.70434454 11.88199625 7.83660143 7.47496964 0 3 C0 2.01 0 1.02 0 0 Z " fill="#244DAB" transform="translate(417,627)"/>
<path d="M0 0 C-1.35256184 4.05768553 -3.10715948 4.4498933 -6.828125 6.46875 C-7.4141449 6.79033081 -8.00016479 7.11191162 -8.60394287 7.4432373 C-10.48127154 8.47104435 -12.36531277 9.48576031 -14.25 10.5 C-16.11874687 11.51708056 -17.98605614 12.53676212 -19.85321045 13.5567627 C-21.55645459 14.48536082 -23.26300885 15.40787982 -24.96972656 16.33007812 C-26.94045035 17.4161038 -28.8787464 18.56395771 -30.77246094 19.77929688 C-31.87509277 20.38354492 -31.87509277 20.38354492 -33 21 C-33.66 20.67 -34.32 20.34 -35 20 C-34.505 18.515 -34.505 18.515 -34 17 C-33.01 17 -32.02 17 -31 17 C-31 16.34 -31 15.68 -31 15 C-30.071875 14.731875 -29.14375 14.46375 -28.1875 14.1875 C-25.06956397 13.27744385 -25.06956397 13.27744385 -23.5 11.5 C-21.35395887 9.35395887 -18.84730903 8.92847034 -16 8 C-15.67 7.34 -15.34 6.68 -15 6 C-12.8203125 5 -12.8203125 5 -10.125 4 C-6.84779021 2.77701792 -3.3409793 0 0 0 Z " fill="#1E418B" transform="translate(586,767)"/>
<path d="M0 0 C3.94983543 1.48983815 7.61075134 3.31060913 11.33203125 5.30078125 C12.22519295 5.77815987 12.22519295 5.77815987 13.13639832 6.2651825 C14.39184073 6.93712519 15.64657461 7.61039319 16.90063477 8.28491211 C18.79425925 9.30269598 20.69088175 10.31471306 22.58789062 11.32617188 C28.86082202 14.68367665 35.02676123 18.12526418 41 22 C38.73795777 22.7782599 37.47064854 23.16691678 35.17919922 22.35424805 C34.56061035 21.99371338 33.94202148 21.63317871 33.3046875 21.26171875 C32.59691162 20.85832275 31.88913574 20.45492676 31.15991211 20.03930664 C30.40589111 19.59321045 29.65187012 19.14711426 28.875 18.6875 C27.26993978 17.76231173 25.66445781 16.83785482 24.05859375 15.9140625 C23.23085449 15.43356445 22.40311523 14.95306641 21.55029297 14.45800781 C19.00291792 13.00166818 16.4329335 11.59873518 13.84765625 10.2109375 C13.02475098 9.76661377 12.2018457 9.32229004 11.35400391 8.86450195 C9.76445794 8.0080614 8.17174906 7.15746097 6.57568359 6.31323242 C5.49988037 5.72699097 5.49988037 5.72699097 4.40234375 5.12890625 C3.76804443 4.78931885 3.13374512 4.44973145 2.48022461 4.09985352 C1 3 1 3 0 0 Z " fill="#204290" transform="translate(304,695)"/>
<path d="M0 0 C1.48098543 1.9429838 2.92238478 3.88055477 4.25390625 5.9296875 C8.24716521 11.86593516 12.77262797 14.66661351 19 18 C20.55091735 18.86200082 22.10026754 19.7268245 23.6484375 20.59375 C28.09007619 23.07872352 32.54205682 25.54441508 37 28 C33.19099398 29.24780476 31.302453 28.50505334 27.72070312 26.69726562 C27.09099609 26.36404297 26.46128906 26.03082031 25.8125 25.6875 C25.17119141 25.36587891 24.52988281 25.04425781 23.86914062 24.71289062 C19.14060834 22.28121668 19.14060834 22.28121668 18 20 C17.319375 19.7525 16.63875 19.505 15.9375 19.25 C8.93280146 16.26927722 3.80543217 11.54058654 0 5 C-0.3125 2.0625 -0.3125 2.0625 0 0 Z " fill="#24489D" transform="translate(205,632)"/>
<path d="M0 0 C0.66 0.33 1.32 0.66 2 1 C-0.60168275 3.9721379 -3.61760707 5.60982481 -7.05859375 7.50390625 C-7.64415543 7.82785873 -8.2297171 8.15181122 -8.83302307 8.48558044 C-10.69857602 9.51603184 -12.56799265 10.53924395 -14.4375 11.5625 C-15.69100459 12.25410549 -16.94426253 12.94615822 -18.19726562 13.63867188 C-21.45866562 15.43734918 -24.72203407 17.23161269 -28 19 C-29.08873413 19.63023071 -29.08873413 19.63023071 -30.19946289 20.27319336 C-32 21 -32 21 -35 20 C-29.73353098 15.23509946 -29.73353098 15.23509946 -26.22802734 14.11157227 C-23.01675612 13.00576997 -20.37598465 11.64410104 -17.453125 9.92578125 C-16.44378906 9.34119141 -15.43445313 8.75660156 -14.39453125 8.15429688 C-12.28143176 6.91662431 -10.16946852 5.67700994 -8.05859375 4.43554688 C-7.05441406 3.85482422 -6.05023437 3.27410156 -5.015625 2.67578125 C-4.10071289 2.13864502 -3.18580078 1.60150879 -2.24316406 1.0480957 C-1.50291992 0.70222412 -0.76267578 0.35635254 0 0 Z " fill="#1E408D" transform="translate(622,746)"/>
<path d="M0 0 C-1.70841204 5.12523612 -6.98091322 6.73885358 -11.53686523 9.26269531 C-13.30415126 10.24535785 -15.05731463 11.25033794 -16.81054688 12.2578125 C-18.47633789 13.18980469 -18.47633789 13.18980469 -20.17578125 14.140625 C-21.19583252 14.71329102 -22.21588379 15.28595703 -23.2668457 15.87597656 C-26.14581149 17.05996571 -27.17667273 17.1712953 -30 16 C-28.64837092 13.29674185 -26.86480517 13.04817699 -24.17041016 11.95458984 C-18.90020634 9.63664868 -13.95259651 6.59094949 -8.94335938 3.76367188 C-7.64688477 3.03954102 -7.64688477 3.03954102 -6.32421875 2.30078125 C-5.1499231 1.63816284 -5.1499231 1.63816284 -3.9519043 0.9621582 C-2 0 -2 0 0 0 Z " fill="#2757C7" transform="translate(558,524)"/>
<path d="M0 0 C-6.75 4 -6.75 4 -9 4 C-9 4.66 -9 5.32 -9 6 C-9.804375 6.12375 -10.60875 6.2475 -11.4375 6.375 C-12.7059375 6.684375 -12.7059375 6.684375 -14 7 C-14.33 7.66 -14.66 8.32 -15 9 C-17.5625 9.625 -17.5625 9.625 -20 10 C-20 10.66 -20 11.32 -20 12 C-22.90600261 13.25664978 -24.79604584 14 -28 14 C-28 13.34 -28 12.68 -28 12 C-24.09421348 9.79263343 -20.17380435 7.61265241 -16.25 5.4375 C-14.58324219 4.49487305 -14.58324219 4.49487305 -12.8828125 3.53320312 C-11.81289063 2.94345703 -10.74296875 2.35371094 -9.640625 1.74609375 C-8.65610352 1.19622803 -7.67158203 0.6463623 -6.65722656 0.07983398 C-3.82344718 -1.07174689 -2.78240541 -1.13432088 0 0 Z " fill="#2A5ED4" transform="translate(544,460)"/>
<path d="M0 0 C0.99 0.33 1.98 0.66 3 1 C2.401875 1.70125 1.80375 2.4025 1.1875 3.125 C-3.28157293 8.99863871 -4.47421647 13.68429819 -4.6875 20.875 C-4.72166016 21.65875 -4.75582031 22.4425 -4.79101562 23.25 C-4.87280412 25.16618748 -4.9380946 27.08306715 -5 29 C-7.73213288 25.7185494 -8.47174586 23.63380557 -8.28515625 19.27734375 C-7.3331273 11.67415361 -4.77395757 5.93519049 0 0 Z " fill="#2D60D7" transform="translate(210,345)"/>
<path d="M0 0 C5.85014103 1.59200559 10.70518486 4.55736873 15.875 7.625 C16.75414062 8.140625 17.63328125 8.65625 18.5390625 9.1875 C20.6957056 10.45335573 22.84917988 11.72428407 25 13 C22.45273625 13.95308021 21.31348244 14.1169796 18.72583008 13.15136719 C17.91525146 12.70438477 17.10467285 12.25740234 16.26953125 11.796875 C15.38458984 11.31089844 14.49964844 10.82492187 13.58789062 10.32421875 C12.67201172 9.80472656 11.75613281 9.28523437 10.8125 8.75 C9.88501953 8.24597656 8.95753906 7.74195313 8.00195312 7.22265625 C1.13084241 3.39252723 1.13084241 3.39252723 0 0 Z " fill="#214498" transform="translate(251,666)"/>
<path d="M0 0 C0 0.66 0 1.32 0 2 C-3.57233316 4.04075997 -7.15943079 6.05402535 -10.75 8.0625 C-12.27367187 8.93358398 -12.27367187 8.93358398 -13.828125 9.82226562 C-14.8078125 10.36689453 -15.7875 10.91152344 -16.796875 11.47265625 C-18.14797363 12.23461304 -18.14797363 12.23461304 -19.52636719 13.01196289 C-22.24879711 14.09937642 -23.31693904 14.05405966 -26 13 C-22.04533792 10.82658104 -18.08568659 8.66241799 -14.125 6.5 C-12.99707031 5.87996094 -11.86914062 5.25992187 -10.70703125 4.62109375 C-9.63066406 4.03457031 -8.55429687 3.44804687 -7.4453125 2.84375 C-6.45031738 2.29912109 -5.45532227 1.75449219 -4.43017578 1.19335938 C-2 0 -2 0 0 0 Z " fill="#2C63E2" transform="translate(726,433)"/>
<path d="M0 0 C4.78906865 0.29931679 7.5436737 2.72017171 11.1328125 5.625 C13.05775029 7.19030864 13.05775029 7.19030864 16 8 C16.8125 9.9375 16.8125 9.9375 17 12 C16.34 12.66 15.68 13.32 15 14 C14.67 13.01 14.34 12.02 14 11 C13.01 10.67 12.02 10.34 11 10 C10.2575 9.21625 9.515 8.4325 8.75 7.625 C5.56243263 4.58232205 3.08514506 3.52191679 -1 2 C-0.67 1.34 -0.34 0.68 0 0 Z " fill="#2D65E0" transform="translate(794,464)"/>
<path d="M0 0 C0.5775 0.37125 1.155 0.7425 1.75 1.125 C-0.39258223 3.47514488 -2.37629322 4.84317126 -5.25 6.1875 C-7.77745252 7.37942363 -9.90289341 8.56026227 -12.25 10.125 C-12.58 9.135 -12.91 8.145 -13.25 7.125 C-12.17130607 6.16144756 -11.08681257 5.20438583 -10 4.25 C-9.09507812 3.44949219 -9.09507812 3.44949219 -8.171875 2.6328125 C-3.21997691 -1.25221324 -3.21997691 -1.25221324 0 0 Z " fill="#2551B4" transform="translate(224.25,592.875)"/>
<path d="M0 0 C-0.99 0.33 -1.98 0.66 -3 1 C-3 1.66 -3 2.32 -3 3 C-5.45898655 3.08076963 -7.91533742 3.14037143 -10.375 3.1875 C-11.42300781 3.22520508 -11.42300781 3.22520508 -12.4921875 3.26367188 C-14.5234375 3.29296875 -14.5234375 3.29296875 -18 3 C-18.66 2.01 -19.32 1.02 -20 0 C-13.37433627 -1.35911051 -6.59282829 -1.70137504 0 0 Z " fill="#2A63E4" transform="translate(794,463)"/>
<path d="M0 0 C0 0.33 0 0.66 0 1 C-0.89203125 1.13277344 -1.7840625 1.26554687 -2.703125 1.40234375 C-4.45882812 1.66724609 -4.45882812 1.66724609 -6.25 1.9375 C-7.99023438 2.19853516 -7.99023438 2.19853516 -9.765625 2.46484375 C-13.96474999 3.15962651 -16.43170916 3.62113944 -20 6 C-20.99 4.68 -21.98 3.36 -23 2 C-15.15534213 -1.46087847 -8.35795062 -0.87907248 0 0 Z " fill="#2E61D6" transform="translate(243,463)"/>
<path d="M0 0 C-0.0625 1.75 -0.0625 1.75 -1 4 C-6.19127512 7.78530477 -10.64913415 8.71197887 -17 9 C-13.94746898 6.59124922 -10.78648153 4.67456202 -7.375 2.8125 C-6.41335938 2.28269531 -5.45171875 1.75289062 -4.4609375 1.20703125 C-2 0 -2 0 0 0 Z " fill="#2250B5" transform="translate(718,623)"/>
<path d="M0 0 C-1.37619715 4.12859144 -4.1505427 5.20982177 -7.75 7.25 C-8.68199219 7.81460938 -8.68199219 7.81460938 -9.6328125 8.390625 C-12.61162094 10.09998343 -14.48612663 11.04622141 -17.953125 10.734375 C-18.62859375 10.49203125 -19.3040625 10.2496875 -20 10 C-19.48695313 9.75507812 -18.97390625 9.51015625 -18.4453125 9.2578125 C-14.52921525 7.24346216 -10.75145603 4.97947208 -6.95703125 2.74609375 C-2.21926511 0 -2.21926511 0 0 0 Z " fill="#2557CC" transform="translate(578,513)"/>
<path d="M0 0 C4.85855541 1.432938 8.96330636 3.47554691 13.3125 6 C14.26092773 6.53367187 14.26092773 6.53367187 15.22851562 7.078125 C19.87323778 9.74647556 19.87323778 9.74647556 21 12 C16.19822231 11.38581913 12.45112199 9.38340662 8.25 7.125 C7.56550781 6.77308594 6.88101562 6.42117188 6.17578125 6.05859375 C1.1222349 3.36670471 1.1222349 3.36670471 0 0 Z " fill="#2A5CD6" transform="translate(295,433)"/>
<path d="M0 0 C-0.19140625 1.83203125 -0.19140625 1.83203125 -1 4 C-3.21484375 5.44921875 -3.21484375 5.44921875 -5.9375 6.6875 C-6.83339844 7.10386719 -7.72929688 7.52023437 -8.65234375 7.94921875 C-9.42707031 8.29597656 -10.20179688 8.64273438 -11 9 C-11.99 9.495 -11.99 9.495 -13 10 C-13 9.34 -13 8.68 -13 8 C-13.66 7.67 -14.32 7.34 -15 7 C-12.87767021 5.82823482 -10.75242209 4.66245215 -8.625 3.5 C-7.72007812 2.99919922 -7.72007812 2.99919922 -6.796875 2.48828125 C-2.2265625 0 -2.2265625 0 0 0 Z " fill="#2450B2" transform="translate(694,636)"/>
<path d="M0 0 C4.47213425 0.43630578 7.20485307 1.73154932 10.98828125 4.078125 C14.77069112 5.8114235 18.89109366 5.83465166 23 6 C22.67 6.66 22.34 7.32 22 8 C14.39340515 8.66144303 8.03389393 6.18440363 1.875 1.75 C1.25625 1.1725 0.6375 0.595 0 0 Z " fill="#163B8D" transform="translate(492,728)"/>
<path d="M0 0 C0.66 0.33 1.32 0.66 2 1 C-2.5280575 5.73141338 -6.76511041 8.0302949 -13.3046875 8.25390625 C-17.54165762 8.2916175 -21.76682967 8.17317515 -26 8 C-26 7.67 -26 7.34 -26 7 C-24.69289063 6.99613281 -24.69289063 6.99613281 -23.359375 6.9921875 C-15.15641091 6.7258575 -9.43869569 5.30533948 -2.328125 1.1796875 C-1.55984375 0.79039062 -0.7915625 0.40109375 0 0 Z " fill="#122F72" transform="translate(530,797)"/>
<path d="M0 0 C0.66 0.33 1.32 0.66 2 1 C-0.47643336 3.76826894 -3.20609442 5.44356974 -6.4375 7.25 C-7.85869141 8.06210937 -7.85869141 8.06210937 -9.30859375 8.890625 C-12.28627857 10.11800162 -13.05251964 9.91610345 -16 9 C-13.38029207 7.46935061 -10.75498357 5.95030252 -8.125 4.4375 C-7.37863281 3.99986328 -6.63226562 3.56222656 -5.86328125 3.11132812 C-5.14785156 2.70205078 -4.43242188 2.29277344 -3.6953125 1.87109375 C-3.03547363 1.48880615 -2.37563477 1.10651855 -1.69580078 0.71264648 C-1.13618652 0.47747314 -0.57657227 0.2422998 0 0 Z " fill="#1D4192" transform="translate(669,720)"/>
<path d="M0 0 C0.66 0.33 1.32 0.66 2 1 C0.62664309 4.35552151 -0.63934426 5.75106712 -3.875 7.375 C-4.55304687 7.73335938 -5.23109375 8.09171875 -5.9296875 8.4609375 C-8 9 -8 9 -10.2578125 8.1015625 C-10.83273437 7.73804688 -11.40765625 7.37453125 -12 7 C-10.04754815 5.80285445 -8.08785003 4.61751926 -6.125 3.4375 C-5.03445313 2.77621094 -3.94390625 2.11492187 -2.8203125 1.43359375 C-1.88960937 0.96050781 -0.95890625 0.48742187 0 0 Z " fill="#2F66E0" transform="translate(728,487)"/>
<path d="M0 0 C4.49324849 1.65770333 8.61186146 3.84982162 12.8125 6.125 C13.50537109 6.49753906 14.19824219 6.87007812 14.91210938 7.25390625 C16.60934836 8.16690377 18.30485138 9.08312716 20 10 C16.51348431 11.17353592 16.0402249 11.01710962 12.36328125 9.453125 C11.00618403 8.73146235 9.65605948 7.99656397 8.3125 7.25 C7.27899414 6.70859375 7.27899414 6.70859375 6.22460938 6.15625 C1.13042092 3.39126276 1.13042092 3.39126276 0 0 Z " fill="#244FBA" transform="translate(280,553)"/>
<path d="M0 0 C-3.96282037 4.28180901 -8.66403627 6.83314545 -14.5 7.25 C-15.325 7.1675 -16.15 7.085 -17 7 C-14.01353231 5.00902154 -11.40312738 4.05875074 -8 3 C-8 2.34 -8 1.68 -8 1 C-2.25 -1.125 -2.25 -1.125 0 0 Z " fill="#1E449B" transform="translate(532,668)"/>
<path d="M0 0 C1.91302307 3.26613695 2.35674661 5.99445248 2.625 9.75 C2.69976562 10.73484375 2.77453125 11.7196875 2.8515625 12.734375 C2.92503906 13.85585938 2.92503906 13.85585938 3 15 C2.01 15.66 1.02 16.32 0 17 C-1.37745568 11.49017726 -1.8198497 5.45954909 0 0 Z " fill="#2B55B1" transform="translate(203,614)"/>
<path d="M0 0 C4.53847198 1.34927545 8.31932246 3.19159348 12.375 5.625 C13.43460937 6.25664063 14.49421875 6.88828125 15.5859375 7.5390625 C16.38257813 8.02117188 17.17921875 8.50328125 18 9 C16.41796875 9.703125 16.41796875 9.703125 14 10 C10.80078125 8.671875 10.80078125 8.671875 7.3125 6.75 C6.15363281 6.12609375 4.99476563 5.5021875 3.80078125 4.859375 C1 3 1 3 0 0 Z " fill="#2450B8" transform="translate(311,570)"/>
<path d="M0 0 C0 0.99 0 1.98 0 3 C-2.24179377 4.36965208 -4.49172338 5.72052808 -6.75 7.0625 C-7.38421875 7.45244141 -8.0184375 7.84238281 -8.671875 8.24414062 C-13.546875 11.11328125 -13.546875 11.11328125 -18 10 C-12.06 6.7 -6.12 3.4 0 0 Z " fill="#2A63E3" transform="translate(753,417)"/>
<path d="M0 0 C0 0.66 0 1.32 0 2 C-1.79296875 3.54296875 -1.79296875 3.54296875 -4.1875 5.1875 C-4.96480469 5.73792969 -5.74210938 6.28835938 -6.54296875 6.85546875 C-9.50997633 8.23755654 -10.92557562 7.94471655 -14 7 C-10.33997803 3.94998169 -4.92148529 0 0 0 Z " fill="#2961DF" transform="translate(774,464)"/>
<path d="M0 0 C0 0.99 0 1.98 0 3 C-2.046875 4.640625 -2.046875 4.640625 -4.75 6.25 C-5.63171875 6.79140625 -6.5134375 7.3328125 -7.421875 7.890625 C-10 9 -10 9 -12.328125 8.671875 C-12.87984375 8.45015625 -13.4315625 8.2284375 -14 8 C-12.20963542 7.0234375 -10.41927083 6.046875 -8.62890625 5.0703125 C-6.83381685 4.08589976 -6.83381685 4.08589976 -6 2 C-4.02111039 1.27306096 -2.02045442 0.60183749 0 0 Z " fill="#1C3F8D" transform="translate(642,735)"/>
<path d="M0 0 C2.1875 0.0625 2.1875 0.0625 5 1 C6.93157957 3.1717219 8.48201687 5.52601047 10 8 C9.01 9.485 9.01 9.485 8 11 C7.731875 10.195625 7.46375 9.39125 7.1875 8.5625 C6.795625 7.716875 6.40375 6.87125 6 6 C5.01 5.67 4.02 5.34 3 5 C3 4.34 3 3.68 3 3 C2.01 2.67 1.02 2.34 0 2 C0 1.34 0 0.68 0 0 Z " fill="#2958C2" transform="translate(802,597)"/>
<path d="M0 0 C3.76314135 0.60914159 6.83503926 1.6879685 10.25 3.375 C11.55710937 4.00535156 11.55710937 4.00535156 12.890625 4.6484375 C15 6 15 6 16 9 C10.0942118 7.44584521 5.02261107 4.40465533 0 1 C0 0.67 0 0.34 0 0 Z " fill="#2553BA" transform="translate(454,578)"/>
<path d="M0 0 C0.98613281 0.13921875 1.97226562 0.2784375 2.98828125 0.421875 C4.47908203 0.61523438 4.47908203 0.61523438 6 0.8125 C6.75925781 0.93109375 7.51851562 1.0496875 8.30078125 1.171875 C7.31078125 2.656875 7.31078125 2.656875 6.30078125 4.171875 C3.48046875 4.46484375 3.48046875 4.46484375 0.17578125 4.359375 C-1.46777344 4.31876953 -1.46777344 4.31876953 -3.14453125 4.27734375 C-4.40910156 4.22513672 -4.40910156 4.22513672 -5.69921875 4.171875 C-3.45523626 0.22001504 -3.45523626 0.22001504 0 0 Z " fill="#2D5DC9" transform="translate(784.69921875,589.828125)"/>
<path d="M0 0 C-2.81332973 3.30979968 -6.141943 5.1048141 -10 7 C-12.22265625 6.609375 -12.22265625 6.609375 -14 6 C-3.55905512 -1.77952756 -3.55905512 -1.77952756 0 0 Z " fill="#234CAE" transform="translate(599,631)"/>
<path d="M0 0 C0.33 1.32 0.66 2.64 1 4 C-0.62418745 4.08090971 -2.24951745 4.13914995 -3.875 4.1875 C-4.77992188 4.22230469 -5.68484375 4.25710938 -6.6171875 4.29296875 C-7.79667969 4.14794922 -7.79667969 4.14794922 -9 4 C-9.66 3.01 -10.32 2.02 -11 1 C-7.32589215 -0.17571451 -3.83070817 -0.07366746 0 0 Z " fill="#2E5ABD" transform="translate(237,590)"/>
<path d="M0 0 C-2.2863012 1.36402043 -4.57821749 2.71634274 -6.875 4.0625 C-7.85146484 4.64741211 -7.85146484 4.64741211 -8.84765625 5.24414062 C-10.53065725 6.22444533 -12.26296199 7.11898432 -14 8 C-14.66 7.67 -15.32 7.34 -16 7 C-13.74955401 4.55542608 -11.44198707 2.90097066 -8.5625 1.25 C-7.41974609 0.57710938 -7.41974609 0.57710938 -6.25390625 -0.109375 C-3.66585264 -1.13203743 -2.56366999 -0.95772637 0 0 Z " fill="#2C63DF" transform="translate(601,429)"/>
<path d="M0 0 C3.3 0.33 6.6 0.66 10 1 C10 1.33 10 1.66 10 2 C13.3 2.33 16.6 2.66 20 3 C20 3.33 20 3.66 20 4 C17.60347472 4.08139142 15.20974564 4.14067009 12.8125 4.1875 C12.13896484 4.21263672 11.46542969 4.23777344 10.77148438 4.26367188 C6.31116118 4.3289449 3.55034309 3.73686642 0 1 C0 0.67 0 0.34 0 0 Z " fill="#22458D" transform="translate(498,802)"/>
<path d="M0 0 C-0.25 1.875 -0.25 1.875 -1 4 C-4.17973464 6.35535899 -7.15124621 6.17494335 -11 6 C-3.8 0 -3.8 0 0 0 Z " fill="#2A58BF" transform="translate(736,613)"/>
<path d="M0 0 C-4.15984612 3.89985574 -7.55084591 4.89169747 -13 6 C-12 3 -12 3 -10.29296875 1.796875 C-9.59816406 1.45140625 -8.90335938 1.1059375 -8.1875 0.75 C-7.50042969 0.39421875 -6.81335938 0.0384375 -6.10546875 -0.328125 C-3.64922558 -1.11193544 -2.39957614 -0.84119973 0 0 Z " fill="#2C61DB" transform="translate(559,452)"/>
<path d="M0 0 C-1.20523048 3.61569144 -2.07185564 3.94669545 -5.3125 5.75 C-6.48232422 6.42289062 -6.48232422 6.42289062 -7.67578125 7.109375 C-10.30300917 8.11611108 -11.40927388 7.97226335 -14 7 C-12.04480616 5.82807953 -10.0857461 4.6626071 -8.125 3.5 C-7.03445313 2.8503125 -5.94390625 2.200625 -4.8203125 1.53125 C-2 0 -2 0 0 0 Z " fill="#2658CF" transform="translate(593,505)"/>
<path d="M0 0 C4.72224516 1.53472968 9.35855331 3.23945126 14 5 C14 5.33 14 5.66 14 6 C8.7837917 6.3129725 5.43424223 5.85058429 1 3 C0.67 2.01 0.34 1.02 0 0 Z " fill="#1E439B" transform="translate(492,669)"/>
<path d="M0 0 C2 1 2 1 3 3 C-1.43076923 6.07692308 -1.43076923 6.07692308 -4.3125 5.6875 C-4.869375 5.460625 -5.42625 5.23375 -6 5 C-6.33 5.66 -6.66 6.32 -7 7 C-7.66 6.34 -8.32 5.68 -9 5 C-7.54735962 4.1361871 -6.0876837 3.28419546 -4.625 2.4375 C-3.40683594 1.72400391 -3.40683594 1.72400391 -2.1640625 0.99609375 C-1.44992187 0.66738281 -0.73578125 0.33867188 0 0 Z " fill="#2C5CC5" transform="translate(752,603)"/>
<path d="M0 0 C0 0.66 0 1.32 0 2 C-0.66 2 -1.32 2 -2 2 C-2.33 2.99 -2.66 3.98 -3 5 C-5.70879335 6.35439668 -8.00933268 6.06501451 -11 6 C-8.24029211 2.78034079 -4.3526723 0 0 0 Z " fill="#3065DD" transform="translate(716,495)"/>
<path d="M0 0 C4.55105375 0.54179211 8.06386006 1.62000841 12 4 C12.33 4.99 12.66 5.98 13 7 C8.1725201 5.58707905 4.2837641 3.57025846 0 1 C0 0.67 0 0.34 0 0 Z " fill="#2A60D9" transform="translate(468,455)"/>
<path d="M0 0 C0 0.66 0 1.32 0 2 C-1.76371818 3.03307771 -3.53625033 4.05112049 -5.3125 5.0625 C-6.79169922 5.91521484 -6.79169922 5.91521484 -8.30078125 6.78515625 C-11 8 -11 8 -14 7 C-12.04480616 5.82807953 -10.0857461 4.6626071 -8.125 3.5 C-7.03445313 2.8503125 -5.94390625 2.200625 -4.8203125 1.53125 C-2 0 -2 0 0 0 Z " fill="#295FDF" transform="translate(698,448)"/>
<path d="M0 0 C-0.72316406 0.50660156 -0.72316406 0.50660156 -1.4609375 1.0234375 C-2.09257813 1.46945312 -2.72421875 1.91546875 -3.375 2.375 C-4.00148438 2.81585937 -4.62796875 3.25671875 -5.2734375 3.7109375 C-7.12380509 5.02808866 -7.12380509 5.02808866 -9 7 C-9.66 6.67 -10.32 6.34 -11 6 C-8.99478859 0.71353355 -5.45752006 -1.70692649 0 0 Z " fill="#193D8F" transform="translate(527,729)"/>
<path d="M0 0 C-1.09987776 3.29963329 -1.45586748 3.61064772 -4.3125 5.25 C-4.90675781 5.60578125 -5.50101563 5.9615625 -6.11328125 6.328125 C-8.4491564 7.15994803 -9.69274206 6.7945524 -12 6 C-10.37829621 4.99466333 -8.75252763 3.99588093 -7.125 3 C-5.76761719 2.1646875 -5.76761719 2.1646875 -4.3828125 1.3125 C-2 0 -2 0 0 0 Z " fill="#254FB4" transform="translate(628,614)"/>
<path d="M0 0 C4.61513112 1.31860889 8.09897612 3.21355437 12 6 C10.4375 6.75 10.4375 6.75 8 7 C5.45280141 5.97667131 3.13666413 4.72727704 1 3 C0.67 2.01 0.34 1.02 0 0 Z " fill="#1E4191" transform="translate(291,688)"/>
<path d="M0 0 C2 1 2 1 3 3 C-2.2734375 6.22265625 -2.2734375 6.22265625 -4 7 C-6 6 -6 6 -7 4 C-1.7265625 0.77734375 -1.7265625 0.77734375 0 0 Z " fill="#2D61D2" transform="translate(636,537)"/>
<path d="M0 0 C-1.36983503 3.16115776 -1.9890638 3.9927092 -5 6 C-8.1875 6.125 -8.1875 6.125 -11 6 C-3.28571429 0 -3.28571429 0 0 0 Z " fill="#2D65E1" transform="translate(749,477)"/>
<path d="M0 0 C3.68014125 0.70771947 6.76166418 2.12896153 10 4 C10.33 4.99 10.66 5.98 11 7 C6.96678237 5.78065514 3.45730521 4.44045073 0 2 C0 1.34 0 0.68 0 0 Z " fill="#2A60DB" transform="translate(453,446)"/>
<path d="M0 0 C4.85963179 0.60745397 8.7405518 2.72758967 13 5 C13 5.66 13 6.32 13 7 C9.70319035 6.34215037 7.15882078 5.10579427 4.25 3.4375 C3.45078125 2.98246094 2.6515625 2.52742188 1.828125 2.05859375 C1.22484375 1.70925781 0.6215625 1.35992187 0 1 C0 0.67 0 0.34 0 0 Z " fill="#2D64E2" transform="translate(318,374)"/>
<path d="M0 0 C0.763125 0.309375 1.52625 0.61875 2.3125 0.9375 C7.17314841 2.33802581 11.96858173 2.65979734 17 3 C17 3.33 17 3.66 17 4 C12.05 4.33 7.1 4.66 2 5 C1.34 3.35 0.68 1.7 0 0 Z " fill="#3864C2" transform="translate(498,601)"/>
<path d="M0 0 C-2.62198774 2.15377564 -4.64404172 3.40072174 -8 4 C-8 4.66 -8 5.32 -8 6 C-9.32 6.33 -10.64 6.66 -12 7 C-12 6.01 -12 5.02 -12 4 C-4.71428571 -0.57142857 -4.71428571 -0.57142857 0 0 Z " fill="#234FB3" transform="translate(533,596)"/>
<path d="M0 0 C0.515625 0.2475 1.03125 0.495 1.5625 0.75 C-3.1875 3.75 -3.1875 3.75 -5.4375 3.75 C-5.4375 4.41 -5.4375 5.07 -5.4375 5.75 C-7.0875 6.08 -8.7375 6.41 -10.4375 6.75 C-9.15564628 2.90443885 -7.65170223 2.32931973 -4.2265625 0.46875 C-2.4375 -0.25 -2.4375 -0.25 0 0 Z " fill="#2A60DC" transform="translate(571.4375,443.25)"/>
<path d="M0 0 C4.55105375 0.54179211 8.06386006 1.62000841 12 4 C12.33 4.99 12.66 5.98 13 7 C8.50202887 5.31326082 4.27113698 3.18326108 0 1 C0 0.67 0 0.34 0 0 Z " fill="#2E63E0" transform="translate(390,413)"/>
<path d="M0 0 C0.66 0.33 1.32 0.66 2 1 C1 2 0 3 -1 4 C-1.45375 4.5775 -1.9075 5.155 -2.375 5.75 C-4 7 -4 7 -6.6875 6.6875 C-7.450625 6.460625 -8.21375 6.23375 -9 6 C-6.12050853 3.76039553 -3.23257974 1.70135776 0 0 Z " fill="#3C73EA" transform="translate(459,207)"/>
<path d="M0 0 C3.0831351 1.19899698 6.06279492 2.47700477 9 4 C7.375 5.1875 7.375 5.1875 5 6 C1.75 4.625 1.75 4.625 -1 3 C-0.67 2.01 -0.34 1.02 0 0 Z " fill="#2B55B4" transform="translate(311,628)"/>
<path d="M0 0 C-1 3 -1 3 -3.8125 4.75 C-6.96403086 5.98589446 -7.96929372 6.28222189 -11 5 C-3.5 0 -3.5 0 0 0 Z " fill="#2352C0" transform="translate(527,541)"/>
<path d="M0 0 C4.87362847 0.45336079 7.39042389 1.7089159 11 5 C8 6 8 6 5.95703125 5.0390625 C5.24933594 4.57242187 4.54164063 4.10578125 3.8125 3.625 C3.09707031 3.16351563 2.38164062 2.70203125 1.64453125 2.2265625 C1.10183594 1.82179688 0.55914062 1.41703125 0 1 C0 0.67 0 0.34 0 0 Z " fill="#2D60D7" transform="translate(492,468)"/>
<path d="M0 0 C0 0.66 0 1.32 0 2 C-1.40751221 2.86916887 -2.8264521 3.71985149 -4.25 4.5625 C-5.03890625 5.03816406 -5.8278125 5.51382812 -6.640625 6.00390625 C-9.30844625 7.13022151 -10.34501768 7.0169313 -13 6 C-11.21118264 4.99491199 -9.41885304 3.99607264 -7.625 3 C-6.62726562 2.443125 -5.62953125 1.88625 -4.6015625 1.3125 C-2 0 -2 0 0 0 Z " fill="#2A60DD" transform="translate(676,460)"/>
<path d="M0 0 C4.87362847 0.45336079 7.39042389 1.7089159 11 5 C8 6 8 6 5.95703125 5.0390625 C5.24933594 4.57242187 4.54164063 4.10578125 3.8125 3.625 C3.09707031 3.16351563 2.38164062 2.70203125 1.64453125 2.2265625 C1.10183594 1.82179688 0.55914062 1.41703125 0 1 C0 0.67 0 0.34 0 0 Z " fill="#2F64DE" transform="translate(435,437)"/>
<path d="M0 0 C4.35522853 0.50642192 7.44239635 1.38411497 11 4 C11 4.66 11 5.32 11 6 C7.27566618 4.7874262 3.62197194 3.49140021 0 2 C0 1.34 0 0.68 0 0 Z " fill="#2E64DF" transform="translate(409,423)"/>
<path d="M0 0 C-1.78614318 1.03046722 -3.57910018 2.04913236 -5.375 3.0625 C-6.87160156 3.91521484 -6.87160156 3.91521484 -8.3984375 4.78515625 C-9.25695312 5.18605469 -10.11546875 5.58695312 -11 6 C-11.66 5.67 -12.32 5.34 -13 5 C-9.44809236 0.85610776 -5.36327214 -1.71439369 0 0 Z " fill="#2B60DB" transform="translate(241,329)"/>
<path d="M0 0 C0.721875 0.103125 1.44375 0.20625 2.1875 0.3125 C1.1875 3.3125 1.1875 3.3125 -1.6875 5.0625 C-4.8125 6.3125 -4.8125 6.3125 -7.8125 5.3125 C-3.50480769 0.38942308 -3.50480769 0.38942308 0 0 Z " fill="#183B86" transform="translate(594.8125,760.6875)"/>
<path d="M0 0 C1.65 0.33 3.3 0.66 5 1 C2.14693203 3.32472205 -0.54074837 4.7508258 -4 6 C-3.67 4.68 -3.34 3.36 -3 2 C-2.01 2 -1.02 2 0 2 C0 1.34 0 0.68 0 0 Z " fill="#21448D" transform="translate(555,782)"/>
<path d="M0 0 C-1.45537568 0.83848804 -2.91440373 1.67063934 -4.375 2.5 C-5.59316406 3.19609375 -5.59316406 3.19609375 -6.8359375 3.90625 C-9 5 -9 5 -11 5 C-11 4.34 -11 3.68 -11 3 C-4.03571429 -1.41964286 -4.03571429 -1.41964286 0 0 Z " fill="#1D4292" transform="translate(540,722)"/>
<path d="M0 0 C0.66 0.33 1.32 0.66 2 1 C2 1.99 2 2.98 2 4 C-2.455 4.495 -2.455 4.495 -7 5 C-4.702779 3.25728062 -2.40133271 1.60088848 0 0 Z M3 1 C5 2 5 2 5 2 Z " fill="#2B59BD" transform="translate(708,627)"/>
<path d="M0 0 C-1.45537568 0.83848804 -2.91440373 1.67063934 -4.375 2.5 C-5.59316406 3.19609375 -5.59316406 3.19609375 -6.8359375 3.90625 C-9 5 -9 5 -11 5 C-11 4.34 -11 3.68 -11 3 C-4.03571429 -1.41964286 -4.03571429 -1.41964286 0 0 Z " fill="#224DB1" transform="translate(545,590)"/>
<path d="M0 0 C3.01217112 0.64449607 5.51655836 1.65022182 8.25 3.0625 C8.95640625 3.42472656 9.6628125 3.78695313 10.390625 4.16015625 C10.92171875 4.43730469 11.4528125 4.71445312 12 5 C9.5332355 5.88336837 8.36140628 6.1312406 5.859375 5.22265625 C5.16328125 4.83980469 4.4671875 4.45695312 3.75 4.0625 C3.04359375 3.68222656 2.3371875 3.30195313 1.609375 2.91015625 C1.07828125 2.60980469 0.5471875 2.30945313 0 2 C0 1.34 0 0.68 0 0 Z " fill="#2E63E4" transform="translate(701,360)"/>
<path d="M0 0 C-1 3 -1 3 -3.3125 4.75 C-6.32190521 6.14972335 -6.98041673 5.95287489 -10 5 C-8.71186658 4.16121545 -7.41936744 3.32913217 -6.125 2.5 C-5.40570312 2.0359375 -4.68640625 1.571875 -3.9453125 1.09375 C-2 0 -2 0 0 0 Z " fill="#1C3B83" transform="translate(586,767)"/>
<path d="M0 0 C1.31823302 0.59155331 2.62947051 1.19871463 3.9375 1.8125 C5.03384766 2.31716797 5.03384766 2.31716797 6.15234375 2.83203125 C8 4 8 4 9 7 C5.2089881 5.55049545 1.6125362 3.84827434 -2 2 C-1.34 1.34 -0.68 0.68 0 0 Z " fill="#234590" transform="translate(392,743)"/>
<path d="M0 0 C3.31562557 0.55260426 6.15062207 1.16825705 9 3 C9.33 3.99 9.66 4.98 10 6 C5.56909529 4.79157144 3.01887244 3.48331435 0 0 Z " fill="#1B4093" transform="translate(480,721)"/>
<path d="M0 0 C2 1 2 1 3 3 C1.02 3.99 -0.96 4.98 -3 6 C-3 5.34 -3 4.68 -3 4 C-3.66 3.67 -4.32 3.34 -5 3 C-2.625 1.4375 -2.625 1.4375 0 0 Z M5 0 C7 1 7 1 7 1 Z M3 1 C5 2 5 2 5 2 Z " fill="#2957BA" transform="translate(684,640)"/>
<path d="M0 0 C0.66 0.33 1.32 0.66 2 1 C-0.12121657 3.33333823 -2.01594365 4.9148886 -5 6 C-7.12890625 5.546875 -7.12890625 5.546875 -9 5 C-7.54735962 4.1361871 -6.0876837 3.28419546 -4.625 2.4375 C-3.40683594 1.72400391 -3.40683594 1.72400391 -2.1640625 0.99609375 C-1.44992187 0.66738281 -0.73578125 0.33867188 0 0 Z " fill="#1E4AB1" transform="translate(639,607)"/>
<path d="M0 0 C0 0.66 0 1.32 0 2 C-6.45 6.09326923 -6.45 6.09326923 -9.234375 5.62109375 C-9.81703125 5.41613281 -10.3996875 5.21117187 -11 5 C-9.54462432 4.16151196 -8.08559627 3.32936066 -6.625 2.5 C-5.81289063 2.0359375 -5.00078125 1.571875 -4.1640625 1.09375 C-2 0 -2 0 0 0 Z " fill="#2351BB" transform="translate(667,593)"/>
<path d="M0 0 C-1 3 -1 3 -2.8125 4.25 C-5.33943414 5.11637742 -6.52221994 4.88492145 -9 4 C-8 2 -8 2 -5.0625 0.875 C-2 0 -2 0 0 0 Z " fill="#2452C2" transform="translate(698,576)"/>
<path d="M0 0 C6.91428571 0.94285714 6.91428571 0.94285714 10 3 C10.33 3.99 10.66 4.98 11 6 C6.49197399 4.74194623 3.5087188 3.09592835 0 0 Z " fill="#2D63E1" transform="translate(377,406)"/>
<path d="M0 0 C0 0.66 0 1.32 0 2 C-6.45 6.09326923 -6.45 6.09326923 -9.234375 5.62109375 C-9.81703125 5.41613281 -10.3996875 5.21117187 -11 5 C-9.54462432 4.16151196 -8.08559627 3.32936066 -6.625 2.5 C-5.81289063 2.0359375 -5.00078125 1.571875 -4.1640625 1.09375 C-2 0 -2 0 0 0 Z " fill="#2C63E6" transform="translate(380,326)"/>
<path d="M0 0 C2 1 2 1 3 3 C-2.2734375 6.22265625 -2.2734375 6.22265625 -4 7 C-4.66 6.67 -5.32 6.34 -6 6 C-4.71034824 4.62437146 -3.37310707 3.29233607 -2 2 C-1.34 2 -0.68 2 0 2 C0 1.34 0 0.68 0 0 Z " fill="#1F438A" transform="translate(537,792)"/>
<path d="M0 0 C4.40114397 0.50298788 6.71195019 2.08772731 10 5 C5.75776898 5.3636198 3.41831915 4.5393228 0 2 C0 1.34 0 0.68 0 0 Z " fill="#19387D" transform="translate(486,796)"/>
<path d="M0 0 C-7.5 5 -7.5 5 -11 5 C-11 4.34 -11 3.68 -11 3 C-7.28026121 0.15549386 -4.62609198 -0.3227506 0 0 Z " fill="#1E459C" transform="translate(617,680)"/>
<path d="M0 0 C3.25696479 0.41755959 4.63443291 0.63443291 7 3 C6.67 3.66 6.34 4.32 6 5 C3.08482708 3.92598892 1.22189824 3.22189824 -1 1 C-0.67 0.67 -0.34 0.34 0 0 Z " fill="#2652B4" transform="translate(289,617)"/>
<path d="M0 0 C3.45925163 1.2491742 6.14693203 2.67527795 9 5 C6 6 6 6 3.375 4.75 C1 3 1 3 0 0 Z " fill="#2C57B9" transform="translate(265,603)"/>
<path d="M0 0 C-1 3 -1 3 -3.9375 4.6875 C-7 6 -7 6 -9 6 C-8 3 -8 3 -5.0625 1.3125 C-2 0 -2 0 0 0 Z " fill="#2652BB" transform="translate(654,600)"/>
<path d="M0 0 C5.53846154 0.61538462 5.53846154 0.61538462 7.875 2.5625 C8.431875 3.2740625 8.431875 3.2740625 9 4 C6.50907189 5.24546405 5.58919267 4.7767578 3 4 C3 3.34 3 2.68 3 2 C2.01 1.67 1.02 1.34 0 1 C0 0.67 0 0.34 0 0 Z " fill="#224EB3" transform="translate(490,598)"/>
<path d="M0 0 C3.31562557 0.55260426 6.15062207 1.16825705 9 3 C9.33 3.99 9.66 4.98 10 6 C5.56909529 4.79157144 3.01887244 3.48331435 0 0 Z " fill="#2151C2" transform="translate(392,544)"/>
<path d="M0 0 C5.75 1.75 5.75 1.75 8 4 C7.67 4.66 7.34 5.32 7 6 C6.34 6 5.68 6 5 6 C5 5.34 5 4.68 5 4 C3.02 3.34 1.04 2.68 -1 2 C-0.67 1.34 -0.34 0.68 0 0 Z " fill="#3063DB" transform="translate(267,476)"/>
<path d="M0 0 C9.41002278 -0.18451025 9.41002278 -0.18451025 14 1 C13.01 1.33 12.02 1.66 11 2 C11 2.66 11 3.32 11 4 C10.01 4 9.02 4 8 4 C8 3.01 8 2.02 8 1 C5.36 1 2.72 1 0 1 C0 0.67 0 0.34 0 0 Z " fill="#467AEA" transform="translate(780,462)"/>
<path d="M0 0 C3.31562557 0.55260426 6.15062207 1.16825705 9 3 C9.33 3.99 9.66 4.98 10 6 C5.56909529 4.79157144 3.01887244 3.48331435 0 0 Z " fill="#2C63E1" transform="translate(348,390)"/>
<path d="M0 0 C-3.1254959 2.64465038 -6.08788267 3.84414715 -10 5 C-10 4.34 -10 3.68 -10 3 C-6.58168085 0.4606772 -4.24223102 -0.3636198 0 0 Z " fill="#1E459A" transform="translate(583,698)"/>
<path d="M0 0 C2.97 1.65 5.94 3.3 9 5 C5 6 5 6 2.25 4.75 C1.5075 4.1725 0.765 3.595 0 3 C0 2.01 0 1.02 0 0 Z " fill="#214AAA" transform="translate(406,621)"/>
<path d="M0 0 C5.75 0.75 5.75 0.75 8 3 C5.6875 3.625 5.6875 3.625 3 4 C2.01 3.34 1.02 2.68 0 2 C0 1.34 0 0.68 0 0 Z " fill="#2B5ED4" transform="translate(323,507)"/>
<path d="M0 0 C0 0.66 0 1.32 0 2 C-4.15267176 5.11450382 -4.15267176 5.11450382 -7.3125 4.6875 C-7.869375 4.460625 -8.42625 4.23375 -9 4 C-2.25 0 -2.25 0 0 0 Z " fill="#1E4193" transform="translate(686,712)"/>
<path d="M0 0 C-5.14285714 4.42857143 -5.14285714 4.42857143 -9 5 C-8 2 -8 2 -5.625 0.25 C-3 -1 -3 -1 0 0 Z " fill="#2952AC" transform="translate(777,663)"/>
<path d="M0 0 C2.125 0.9375 2.125 0.9375 4 2 C1.60490662 4.89932357 -0.31245243 5.50168276 -4 6 C-3.01 5.01 -2.02 4.02 -1 3 C-1.33 2.34 -1.66 1.68 -2 1 C-1.34 0.67 -0.68 0.34 0 0 Z " fill="#2D5EC3" transform="translate(222,592)"/>
<path d="M0 0 C2.9375 1.3125 2.9375 1.3125 3.8125 3.4375 C3.874375 4.365625 3.874375 4.365625 3.9375 5.3125 C0.47824837 4.0633258 -2.20943203 2.63722205 -5.0625 0.3125 C-3.0625 -0.6875 -3.0625 -0.6875 0 0 Z " fill="#2956BE" transform="translate(332.0625,579.6875)"/>
<path d="M0 0 C2 1 2 1 3 3 C1.02 3.99 -0.96 4.98 -3 6 C-3 5.34 -3 4.68 -3 4 C-3.66 3.67 -4.32 3.34 -5 3 C-2.625 1.4375 -2.625 1.4375 0 0 Z " fill="#346CE6" transform="translate(756,472)"/>
<path d="M0 0 C3.34373475 0.55728913 6.03312999 1.35173889 9 3 C9 3.66 9 4.32 9 5 C5.51694958 4.35499066 2.93797836 2.95865224 0 1 C0 0.67 0 0.34 0 0 Z " fill="#295EDB" transform="translate(424,431)"/>
<path d="M0 0 C3.45925163 1.2491742 6.14693203 2.67527795 9 5 C6 6 6 6 3.375 4.75 C1 3 1 3 0 0 Z " fill="#3973EE" transform="translate(721,295)"/>
<path d="M0 0 C2 1 2 1 3 3 C1.02 3.66 -0.96 4.32 -3 5 C-3.66 4.34 -4.32 3.68 -5 3 C-2.625 1.4375 -2.625 1.4375 0 0 Z " fill="#2A5AC2" transform="translate(741,609)"/>
<path d="M0 0 C3.77545388 1.09068668 6.47043472 1.9083091 9 5 C3.48387097 4.38709677 3.48387097 4.38709677 1.125 2.5 C0 1 0 1 0 0 Z " fill="#1F49AE" transform="translate(361,597)"/>
<path d="M0 0 C3.77545388 1.09068668 6.47043472 1.9083091 9 5 C8.01 5.495 8.01 5.495 7 6 C7 5.34 7 4.68 7 4 C4.03 3.505 4.03 3.505 1 3 C0.67 2.01 0.34 1.02 0 0 Z " fill="#3262CB" transform="translate(401,548)"/>
<path d="M0 0 C2.25 -0.25 2.25 -0.25 5 0 C7.3125 2 7.3125 2 9 4 C8.01 4.495 8.01 4.495 7 5 C4.5249829 3.88568235 2.32116581 2.41849022 0 1 C0 0.67 0 0.34 0 0 Z " fill="#3361CA" transform="translate(491,541)"/>
<path d="M0 0 C3.0625 1.25 3.0625 1.25 6 3 C6.33 3.99 6.66 4.98 7 6 C3.54074837 4.7508258 0.85306797 3.32472205 -2 1 C-1.34 0.67 -0.68 0.34 0 0 Z " fill="#3161D7" transform="translate(364,470)"/>
<path d="M0 0 C0.66 0.33 1.32 0.66 2 1 C0.02579865 3.52259061 -0.96745642 3.9929808 -4.1875 4.6875 C-5.5796875 4.8421875 -5.5796875 4.8421875 -7 5 C-2.25 1.125 -2.25 1.125 0 0 Z " fill="#265DDB" transform="translate(659,468)"/>
<path d="M0 0 C-5.75 4 -5.75 4 -8 4 C-8 3.01 -8 2.02 -8 1 C-4.93251126 -0.86240388 -3.40254489 -1.2151946 0 0 Z " fill="#2A60DC" transform="translate(583,439)"/>
<path d="M0 0 C3.0625 1.25 3.0625 1.25 6 3 C6.33 3.99 6.66 4.98 7 6 C3.54074837 4.7508258 0.85306797 3.32472205 -2 1 C-1.34 0.67 -0.68 0.34 0 0 Z " fill="#3364DB" transform="translate(289,429)"/>
<path d="M0 0 C0.556875 0.226875 1.11375 0.45375 1.6875 0.6875 C-5.0625 4.6875 -5.0625 4.6875 -7.3125 4.6875 C-7.3125 4.0275 -7.3125 3.3675 -7.3125 2.6875 C-3.15982824 -0.42700382 -3.15982824 -0.42700382 0 0 Z " fill="#2C63E1" transform="translate(634.3125,409.3125)"/>
<path d="M0 0 C0 0.66 0 1.32 0 2 C-4.15267176 5.11450382 -4.15267176 5.11450382 -7.3125 4.6875 C-7.869375 4.460625 -8.42625 4.23375 -9 4 C-2.25 0 -2.25 0 0 0 Z " fill="#2D64E4" transform="translate(781,403)"/>
<path d="M0 0 C0.556875 0.226875 1.11375 0.45375 1.6875 0.6875 C-5.0625 4.6875 -5.0625 4.6875 -7.3125 4.6875 C-7.3125 4.0275 -7.3125 3.3675 -7.3125 2.6875 C-3.15982824 -0.42700382 -3.15982824 -0.42700382 0 0 Z " fill="#2B61DC" transform="translate(251.3125,321.3125)"/>
<path d="M0 0 C0.556875 0.226875 1.11375 0.45375 1.6875 0.6875 C-5.0625 4.6875 -5.0625 4.6875 -7.3125 4.6875 C-7.3125 4.0275 -7.3125 3.3675 -7.3125 2.6875 C-3.15982824 -0.42700382 -3.15982824 -0.42700382 0 0 Z " fill="#2B61DD" transform="translate(262.3125,315.3125)"/>
<path d="M0 0 C3.45925163 1.2491742 6.14693203 2.67527795 9 5 C3.48387097 4.38709677 3.48387097 4.38709677 1.125 2.5 C0 1 0 1 0 0 Z " fill="#1D4095" transform="translate(233,656)"/>
<path d="M0 0 C3.68754757 0.49831724 5.60490662 1.10067643 8 4 C4.79604584 4 2.90600261 3.25664978 0 2 C0 1.34 0 0.68 0 0 Z " fill="#214EB5" transform="translate(478,591)"/>
<path d="M0 0 C0.66 0.33 1.32 0.66 2 1 C0.02579865 3.52259061 -0.96745642 3.9929808 -4.1875 4.6875 C-5.5796875 4.8421875 -5.5796875 4.8421875 -7 5 C-4.88437775 2.67281553 -2.94982021 1.14186589 0 0 Z " fill="#3165D8" transform="translate(684,511)"/>
<path d="M0 0 C3.08089673 2.77280706 4.68775452 5.06326356 6 9 C1.2 5.67692308 1.2 5.67692308 0.1875 2.25 C0.125625 1.5075 0.06375 0.765 0 0 Z " fill="#214FBE" transform="translate(207,508)"/>
<path d="M0 0 C-4.30769231 3.07692308 -4.30769231 3.07692308 -7.8125 2.6875 C-8.534375 2.460625 -9.25625 2.23375 -10 2 C-3.24137931 -1.62068966 -3.24137931 -1.62068966 0 0 Z " fill="#376EE8" transform="translate(770,469)"/>
<path d="M0 0 C3.68754757 0.49831724 5.60490662 1.10067643 8 4 C4.79604584 4 2.90600261 3.25664978 0 2 C0 1.34 0 0.68 0 0 Z " fill="#2C63E2" transform="translate(367,400)"/>
<path d="M0 0 C-5.2734375 3.22265625 -5.2734375 3.22265625 -7 4 C-7.66 3.67 -8.32 3.34 -9 3 C-5.83583464 -0.30799106 -4.50236011 -1.35070803 0 0 Z " fill="#2E65E2" transform="translate(281,307)"/>
<path d="M0 0 C3 1 3 1 3 1 Z " fill="#27488B" transform="translate(481,797)"/>
<path d="" fill="#2D4F9B" transform="translate(0,0)"/>
<path d="M0 0 C2 1 2 1 2 1 Z " fill="#2F51A0" transform="translate(267,678)"/>
<path d="" fill="#345CBD" transform="translate(0,0)"/>
<path d="M0 0 C2 1 2 1 2 1 Z " fill="#477BF0" transform="translate(690,357)"/>
<path d="" fill="#363737" transform="translate(0,0)"/>
<path d="" fill="#2A2D30" transform="translate(0,0)"/>
<path d="" fill="#264588" transform="translate(0,0)"/>
<path d="" fill="#28488B" transform="translate(0,0)"/>
<path d="" fill="#27468C" transform="translate(0,0)"/>
<path d="" fill="#26478C" transform="translate(0,0)"/>
<path d="" fill="#28498F" transform="translate(0,0)"/>
<path d="" fill="#2A4A90" transform="translate(0,0)"/>
<path d="" fill="#294A91" transform="translate(0,0)"/>
<path d="" fill="#284B94" transform="translate(0,0)"/>
<path d="" fill="#2A4C9A" transform="translate(0,0)"/>
<path d="" fill="#3055A4" transform="translate(0,0)"/>
<path d="" fill="#2B53A3" transform="translate(0,0)"/>
<path d="" fill="#2A4C97" transform="translate(0,0)"/>
<path d="" fill="#2C52A5" transform="translate(0,0)"/>
<path d="" fill="#2C4FA4" transform="translate(0,0)"/>
<path d="" fill="#284DA2" transform="translate(0,0)"/>
<path d="" fill="#2D4F9A" transform="translate(0,0)"/>
<path d="" fill="#2C4F9C" transform="translate(0,0)"/>
<path d="" fill="#2E55AB" transform="translate(0,0)"/>
<path d="" fill="#2D58AE" transform="translate(0,0)"/>
<path d="" fill="#3059B0" transform="translate(0,0)"/>
<path d="" fill="#2C55AD" transform="translate(0,0)"/>
<path d="" fill="#3052A2" transform="translate(0,0)"/>
<path d="" fill="#2B4C9F" transform="translate(0,0)"/>
<path d="" fill="#2D55AC" transform="translate(0,0)"/>
<path d="" fill="#2F58B2" transform="translate(0,0)"/>
<path d="" fill="#2D53A9" transform="translate(0,0)"/>
<path d="" fill="#2F53A4" transform="translate(0,0)"/>
<path d="" fill="#2F56AF" transform="translate(0,0)"/>
<path d="" fill="#2E54A9" transform="translate(0,0)"/>
<path d="" fill="#3253A5" transform="translate(0,0)"/>
<path d="" fill="#3053A6" transform="translate(0,0)"/>
<path d="" fill="#304FA1" transform="translate(0,0)"/>
<path d="" fill="#2D53AA" transform="translate(0,0)"/>
<path d="" fill="#2D57B2" transform="translate(0,0)"/>
<path d="" fill="#3355A3" transform="translate(0,0)"/>
<path d="" fill="#3154A3" transform="translate(0,0)"/>
<path d="" fill="#315AB5" transform="translate(0,0)"/>
<path d="" fill="#3259B6" transform="translate(0,0)"/>
<path d="" fill="#315AB4" transform="translate(0,0)"/>
<path d="" fill="#345BB7" transform="translate(0,0)"/>
<path d="" fill="#3659A6" transform="translate(0,0)"/>
<path d="" fill="#3A5BAD" transform="translate(0,0)"/>
<path d="" fill="#305AB9" transform="translate(0,0)"/>
<path d="" fill="#355CBA" transform="translate(0,0)"/>
<path d="" fill="#395CAE" transform="translate(0,0)"/>
<path d="" fill="#3B5EB1" transform="translate(0,0)"/>
<path d="" fill="#315ABA" transform="translate(0,0)"/>
<path d="" fill="#385CAF" transform="translate(0,0)"/>
<path d="" fill="#375EBD" transform="translate(0,0)"/>
<path d="" fill="#3C5FAF" transform="translate(0,0)"/>
<path d="" fill="#325DBD" transform="translate(0,0)"/>
<path d="" fill="#345EBD" transform="translate(0,0)"/>
<path d="" fill="#375EC2" transform="translate(0,0)"/>
<path d="" fill="#3A64C7" transform="translate(0,0)"/>
<path d="" fill="#3463CA" transform="translate(0,0)"/>
<path d="" fill="#3760C1" transform="translate(0,0)"/>
<path d="" fill="#355EC2" transform="translate(0,0)"/>
<path d="" fill="#3560C4" transform="translate(0,0)"/>
<path d="" fill="#3865C5" transform="translate(0,0)"/>
<path d="" fill="#3764C9" transform="translate(0,0)"/>
<path d="" fill="#3965CF" transform="translate(0,0)"/>
<path d="" fill="#3760C6" transform="translate(0,0)"/>
<path d="" fill="#3261CD" transform="translate(0,0)"/>
<path d="" fill="#3562C9" transform="translate(0,0)"/>
<path d="" fill="#3964CA" transform="translate(0,0)"/>
<path d="" fill="#3A66CC" transform="translate(0,0)"/>
<path d="" fill="#3A66CF" transform="translate(0,0)"/>
<path d="" fill="#3969D0" transform="translate(0,0)"/>
<path d="" fill="#3967CF" transform="translate(0,0)"/>
<path d="" fill="#3B69D0" transform="translate(0,0)"/>
<path d="" fill="#3A68D1" transform="translate(0,0)"/>
<path d="" fill="#3E6FD9" transform="translate(0,0)"/>
<path d="" fill="#3864D1" transform="translate(0,0)"/>
<path d="" fill="#3A68D4" transform="translate(0,0)"/>
<path d="" fill="#3D6AD6" transform="translate(0,0)"/>
<path d="" fill="#3B69D4" transform="translate(0,0)"/>
<path d="" fill="#3C6BD4" transform="translate(0,0)"/>
<path d="" fill="#3F68C4" transform="translate(0,0)"/>
<path d="" fill="#4067C4" transform="translate(0,0)"/>
<path d="" fill="#406EDF" transform="translate(0,0)"/>
<path d="" fill="#3866D5" transform="translate(0,0)"/>
<path d="" fill="#3E6BD9" transform="translate(0,0)"/>
<path d="" fill="#446CCA" transform="translate(0,0)"/>
<path d="" fill="#3E6DDB" transform="translate(0,0)"/>
<path d="" fill="#406EDB" transform="translate(0,0)"/>
<path d="" fill="#3F6BDB" transform="translate(0,0)"/>
<path d="" fill="#4576E2" transform="translate(0,0)"/>
<path d="" fill="#416FE1" transform="translate(0,0)"/>
<path d="" fill="#4A77E8" transform="translate(0,0)"/>
<path d="" fill="#4170DC" transform="translate(0,0)"/>
<path d="" fill="#3E6BD6" transform="translate(0,0)"/>
<path d="" fill="#4371DC" transform="translate(0,0)"/>
<path d="" fill="#406EDE" transform="translate(0,0)"/>
<path d="" fill="#406EDF" transform="translate(0,0)"/>
<path d="" fill="#4471DF" transform="translate(0,0)"/>
<path d="" fill="#4271E0" transform="translate(0,0)"/>
<path d="" fill="#416FDE" transform="translate(0,0)"/>
<path d="" fill="#4979E0" transform="translate(0,0)"/>
<path d="" fill="#4373DF" transform="translate(0,0)"/>
<path d="" fill="#4474E2" transform="translate(0,0)"/>
<path d="" fill="#4376E4" transform="translate(0,0)"/>
<path d="" fill="#4A79E4" transform="translate(0,0)"/>
<path d="" fill="#4D77E8" transform="translate(0,0)"/>
<path d="" fill="#4471DB" transform="translate(0,0)"/>
<path d="" fill="#4677E7" transform="translate(0,0)"/>
<path d="" fill="#4371DC" transform="translate(0,0)"/>
<path d="" fill="#4674E2" transform="translate(0,0)"/>
<path d="" fill="#4878E8" transform="translate(0,0)"/>
<path d="" fill="#456DD1" transform="translate(0,0)"/>
<path d="" fill="#466FCE" transform="translate(0,0)"/>
<path d="" fill="#476ECE" transform="translate(0,0)"/>
<path d="" fill="#4679EB" transform="translate(0,0)"/>
<path d="" fill="#4873D1" transform="translate(0,0)"/>
<path d="" fill="#4A71D2" transform="translate(0,0)"/>
<path d="" fill="#4677EC" transform="translate(0,0)"/>
<path d="" fill="#4A74D5" transform="translate(0,0)"/>
<path d="" fill="#4577E9" transform="translate(0,0)"/>
<path d="" fill="#497AEC" transform="translate(0,0)"/>
<path d="" fill="#487AF0" transform="translate(0,0)"/>
<path d="" fill="#4D7AE1" transform="translate(0,0)"/>
<path d="" fill="#4772D5" transform="translate(0,0)"/>
<path d="" fill="#4675DB" transform="translate(0,0)"/>
<path d="" fill="#4978EB" transform="translate(0,0)"/>
<path d="" fill="#4773DA" transform="translate(0,0)"/>
<path d="" fill="#4874DD" transform="translate(0,0)"/>
<path d="" fill="#4672D9" transform="translate(0,0)"/>
<path d="" fill="#4977EB" transform="translate(0,0)"/>
<path d="" fill="#4B79EC" transform="translate(0,0)"/>
<path d="" fill="#4874DD" transform="translate(0,0)"/>
<path d="" fill="#4878EB" transform="translate(0,0)"/>
<path d="" fill="#4C79E3" transform="translate(0,0)"/>
<path d="" fill="#4C7CE3" transform="translate(0,0)"/>
<path d="" fill="#4A79E7" transform="translate(0,0)"/>
<path d="" fill="#4778ED" transform="translate(0,0)"/>
<path d="" fill="#4979E5" transform="translate(0,0)"/>
<path d="" fill="#4B78E7" transform="translate(0,0)"/>
<path d="" fill="#4D7AE3" transform="translate(0,0)"/>
<path d="" fill="#517DE3" transform="translate(0,0)"/>
<path d="" fill="#517DE4" transform="translate(0,0)"/>
<path d="" fill="#4D7BE7" transform="translate(0,0)"/>
<path d="" fill="#4A7CE8" transform="translate(0,0)"/>
<path d="" fill="#4F79D9" transform="translate(0,0)"/>
<path d="" fill="#4F77DA" transform="translate(0,0)"/>
</svg>
